<svg width="100" height="100" viewBox="0 0 100 100" fill="none" xmlns="http://www.w3.org/2000/svg">
<path opacity="0.3" d="M35.2262 17.3217C38.2302 8.53025 50.3769 8.264 53.9385 16.523L54.2399 17.3268L58.2938 29.1827C59.2229 31.9017 60.7242 34.3898 62.6965 36.4792C64.6689 38.5687 67.0663 40.2108 69.7272 41.2949L70.8173 41.7018L82.6726 45.7509C91.4636 48.7551 91.7298 60.9024 83.4763 64.4642L82.6726 64.7656L70.8173 68.8197C68.0975 69.7482 65.6085 71.2493 63.5183 73.2218C61.4281 75.1943 59.7853 77.5922 58.7007 80.2537L58.2938 81.3388L54.245 93.1998C51.2409 101.991 39.0943 102.258 35.5377 94.0036L35.2262 93.1998L31.1773 81.3438C30.2489 78.6239 28.7479 76.1348 26.7755 74.0445C24.8032 71.9542 22.4054 70.3112 19.744 69.2267L18.6589 68.8197L6.80363 64.7706C-1.99241 61.7665 -2.25865 49.6191 5.99988 46.0624L6.80363 45.7509L18.6589 41.7018C21.3778 40.7727 23.8658 39.2713 25.9551 37.2989C28.0444 35.3264 29.6864 32.9288 30.7704 30.2678L31.1773 29.1827L35.2262 17.3217ZM84.9231 9.07721e-07C85.8629 -1.18545e-06 86.7838 0.263635 87.5812 0.760948C88.3787 1.25826 89.0206 1.96931 89.4341 2.81328L89.6752 3.40105L91.4334 8.55537L96.5925 10.3137C97.5343 10.6337 98.3599 11.226 98.9647 12.0158C99.5695 12.8055 99.9263 13.757 99.9898 14.7497C100.053 15.7424 99.8206 16.7316 99.3213 17.5919C98.8221 18.4523 98.0787 19.145 97.1853 19.5824L96.5925 19.8235L91.4385 21.5818L89.6803 26.7412C89.3597 27.6828 88.7669 28.508 87.9769 29.1123C87.187 29.7167 86.2354 30.0729 85.2428 30.1358C84.2502 30.1988 83.2612 29.9656 82.4012 29.4659C81.5412 28.9662 80.8489 28.2225 80.412 27.329L80.1709 26.7412L78.4127 21.5869L73.2536 19.8286C72.3118 19.5086 71.4862 18.9162 70.8814 18.1265C70.2766 17.3367 69.9199 16.3852 69.8564 15.3925C69.7929 14.3998 70.0256 13.4106 70.5248 12.5503C71.0241 11.6899 71.7675 10.9972 72.6609 10.5598L73.2536 10.3187L78.4077 8.56039L80.1659 3.40105C80.5046 2.40849 81.1455 1.54684 81.9986 0.936915C82.8517 0.326988 83.8744 -0.000629377 84.9231 9.07721e-07Z" fill="#3B79FF"/>
</svg>
