<svg width="115" height="140" viewBox="0 0 115 140" fill="none" xmlns="http://www.w3.org/2000/svg">
<path opacity="0.5" d="M82.5138 0C83.7442 8.51554 80.3404 16.8561 75.8441 22.747C71.043 29.0462 62.7921 33.9455 54.7999 33.7122C53.3395 25.5466 57.0883 17.2061 61.6421 11.5485C66.6387 5.30763 75.2116 0.583256 82.5138 0.0583256V0ZM85.3887 34.9954C94.5308 34.9954 104.19 40.093 111.09 48.8769C88.4936 61.5335 92.1734 94.6042 115 103.47C112.625 109.279 109.716 114.843 106.318 120.092C100.672 128.9 92.6909 139.865 82.8588 139.982C78.7995 140.022 76.1316 138.774 73.2567 137.427C69.9276 135.87 66.2994 134.178 59.9172 134.213C53.5925 134.242 49.9126 135.916 46.5202 137.456C43.5764 138.798 40.8625 140.04 36.8031 139.999C26.9135 139.912 19.3813 130.025 13.7465 121.218C-2.06532 96.6048 -3.67526 67.6752 6.04185 52.3939C12.9416 41.487 23.8661 35.0712 34.1582 35.0712C39.632 35.0712 44.0478 36.681 48.2452 38.215C52.063 39.6089 55.7199 40.9388 59.8022 40.9388C63.6086 40.9388 66.7594 39.7256 70.1518 38.4016C74.2571 36.8093 78.7764 35.0595 85.3887 35.0595V34.9954Z" fill="white" fill-opacity="0.67"/>
</svg>
