<svg width="97" height="14" viewBox="0 0 97 14" fill="none" xmlns="http://www.w3.org/2000/svg">
<path d="M94.7828 6.75666C94.8424 6.75396 94.9024 6.76425 94.9544 6.79334C95.2736 6.96947 94.9072 7.04532 95.1648 7.48382C95.3996 7.88293 94.869 7.95644 95.2154 8.15573C95.2361 8.16798 95.2233 8.22471 95.2582 8.25564C95.4454 8.41969 95.0811 8.48557 95.585 8.7696C95.6265 8.79287 95.8385 8.80523 95.8417 8.84219C95.8468 8.89887 95.9217 8.98406 95.9268 9.04136C95.9266 9.04137 95.9264 9.04137 95.9262 9.04138C95.935 9.1462 96.033 10.1597 96.0462 10.5394C96.0462 10.5395 96.0462 10.5395 96.0462 10.5395C96.0488 10.6133 96.0482 10.6631 96.0431 10.6777C96.019 10.7453 96.0468 11.0336 96.035 11.0488C96.0249 11.0615 95.9434 11.0341 95.9121 11.0531C95.8669 11.0807 95.8421 11.181 95.805 11.1916C95.7416 11.2099 95.6212 11.1819 95.5585 11.2002C95.5067 11.215 95.4502 11.3931 95.3978 11.4079C95.3259 11.4284 95.0124 11.4319 94.9058 11.4251C94.5865 11.4047 94.2499 11.3522 93.8935 11.393C93.5452 11.433 93.1823 11.4507 92.8557 11.4967C92.1388 11.5977 91.2591 11.433 90.6135 11.5075C90.1744 11.558 88.173 11.6544 85.0677 11.7828C85.0251 11.7602 84.9359 11.7547 84.8279 11.7924C84.5715 11.8032 84.3097 11.8141 84.0374 11.8248C84.0676 11.8095 84.0753 11.7969 84.0473 11.7904C84.0113 11.7824 83.8864 11.809 83.7998 11.799C83.7281 11.791 83.6155 11.7239 83.5507 11.7527C83.5222 11.7654 83.5907 11.8045 83.5536 11.8348C83.55 11.838 83.5433 11.8414 83.5348 11.8447C83.4543 11.8481 83.3732 11.8516 83.2915 11.8544C83.285 11.8423 83.2636 11.83 83.2233 11.8184C83.1457 11.7952 82.9688 11.8316 82.8475 11.8717C82.3648 11.8909 81.856 11.911 81.3355 11.9308C81.1393 11.8944 80.8119 11.8965 80.8241 11.9504C79.6842 11.9942 78.4678 12.04 77.1841 12.0879C77.2525 12.0633 77.299 12.04 77.2935 12.0229C76.9583 12.0147 76.9924 12.1235 76.7188 12.0427C76.4958 11.9774 76.3701 12.0362 76.2244 12.1234C75.4643 12.152 74.6875 12.1799 73.8861 12.2092C73.9735 12.1765 74.0305 12.1356 73.9157 12.1395C73.9022 12.14 73.7632 12.1905 73.7015 12.2161C72.5293 12.2587 71.3127 12.3021 70.0606 12.3464C70.0689 12.3381 70.0656 12.3308 70.0465 12.3265C69.9506 12.3044 69.5613 12.3256 69.3921 12.3703C68.5665 12.3995 67.7456 12.4285 66.8951 12.4577C66.6579 12.4286 66.4411 12.387 66.4199 12.3945C66.3945 12.4034 66.4331 12.4423 66.4183 12.4743C66.3227 12.4775 66.2273 12.4807 66.132 12.4839C66.1839 12.4501 66.2572 12.4309 66.2571 12.4272C66.2527 12.3532 66.075 12.4531 66.0127 12.4626C65.8695 12.4841 65.7414 12.4828 65.7288 12.4974C60.3839 12.6816 54.6038 12.873 48.8085 13.0424C48.7572 13.0273 48.7098 13.0144 48.7025 13.0146C48.6952 13.0148 48.6487 13.0304 48.5987 13.0486C47.0447 13.0935 45.4897 13.1365 43.949 13.1752C42.0208 13.2231 40.1491 13.2655 38.2577 13.2884C37.3127 13.2991 36.3793 13.3056 35.4339 13.2933C34.9566 13.2862 34.4787 13.2761 33.9585 13.2444C33.6936 13.2268 33.4317 13.2091 33.0749 13.1543C32.8917 13.1222 32.6995 13.0975 32.3388 12.9722C32.1464 12.8975 31.9127 12.8167 31.551 12.5354C31.19 12.2791 30.8266 11.6668 30.7666 11.4507C30.185 9.45141 30.9922 8.4761 31.5856 7.67369C32.0712 7.1357 32.2753 7.0273 32.551 6.80713C32.8078 6.61466 33.0505 6.4456 33.2777 6.29013C33.7439 5.97204 34.1927 5.68059 34.6312 5.39651C35.5037 4.8324 36.3459 4.2948 37.1325 3.76667C37.9146 3.24115 38.6714 2.70902 39.2366 2.2276C39.3801 2.10506 39.5037 1.99045 39.5905 1.90075C39.6789 1.81493 39.7344 1.71896 39.6634 1.83565C39.6349 1.89943 39.5323 2.0408 39.4953 2.45016C39.4256 2.87697 39.7342 3.65413 40.0587 3.91086C40.3776 4.20142 40.5297 4.22485 40.6102 4.25997C40.6816 4.28305 40.6862 4.27932 40.6642 4.27654C34.5821 4.52413 29.0834 4.81388 28.469 4.83267C28.2862 4.84254 28.1031 4.85216 27.9227 4.86139C23.3874 5.05635 18.9798 5.56155 14.654 6.64738C14.5782 6.66627 14.5024 6.68504 14.4267 6.70367C10.9999 7.55801 7.16072 8.00413 3.68588 8.31013C3.41514 8.33746 2.22406 8.46076 2.00694 8.42082C1.95916 8.41227 1.88668 8.21588 1.78613 8.17576C1.19481 7.9385 1.09613 6.44595 0.558084 6.20531C0.280444 6.0806 0.651978 5.92555 0.398003 5.80238C0.339732 5.77386 0.0329237 5.58495 0.0200559 5.5675C-0.0485894 5.47672 0.0788828 5.42545 0.105584 5.36547C0.142057 5.28385 0.149231 5.13257 0.273317 5.06171C0.304177 5.0437 0.381828 5.07357 0.394472 5.06114C0.42155 5.03509 0.234783 4.95382 0.261923 4.92712C0.275826 4.91413 0.413124 4.93938 0.423324 4.92633C0.433494 4.91393 0.361041 4.80434 0.371244 4.79192C0.381547 4.77959 0.158193 4.81939 0.168337 4.80693C0.177982 4.79517 0.125188 4.74213 0.129364 4.70567C0.134816 4.66364 0.21474 4.53563 0.213389 4.50351C0.210143 4.43379 0.0016106 4.31979 0.0431546 4.26783C0.0840785 4.21725 0.29762 4.35315 0.309539 4.33449C0.335294 4.29414 0.0634642 3.91155 0.25025 3.86341C0.345497 3.83838 0.400036 3.92392 0.43461 3.92989C0.533692 3.94683 0.898281 3.94058 0.992554 3.92412C2.47676 3.65244 2.19026 4.19095 4.02847 4.07232C6.99651 3.86507 10.3535 3.36389 13.6755 2.52906C17.6457 1.53629 21.742 0.974911 25.2613 0.734528C25.6543 0.7063 26.5347 0.653786 27.7656 0.602177C28.6469 0.563351 29.7348 0.511142 30.9974 0.445996C31.0063 0.453629 31.0183 0.461756 31.034 0.469702C31.0541 0.479923 31.0908 0.464044 31.1332 0.43924C31.2158 0.434872 31.2996 0.429798 31.3841 0.425931C31.4046 0.459614 31.4706 0.479505 31.6677 0.440727C31.6813 0.430195 31.6949 0.419662 31.7085 0.409129C34.3471 0.30245 36.9065 0.0181522 41.3104 -3.57628e-06C41.4922 0.0270712 41.6766 0.0642385 41.8712 0.121405C42.1174 0.198744 42.3435 0.271026 42.7053 0.506056C42.8897 0.630334 43.0745 0.784298 43.2539 0.999249C43.4549 1.23915 43.6243 1.54533 43.7185 1.86455C43.8133 2.17935 43.836 2.49457 43.8147 2.76773C43.793 3.03344 43.7465 3.21737 43.6877 3.40114C43.4502 4.06612 43.2117 4.31782 43.0045 4.58521C42.8027 4.8272 42.6164 5.01471 42.4251 5.1963C41.7032 5.86932 41.0105 6.36897 40.3081 6.86949C38.9078 7.85743 37.4467 8.76784 36.0537 9.70579C36.0524 9.70592 36.0515 9.70571 36.0502 9.70584C36.001 9.71203 35.9408 9.76066 35.9034 9.80831C35.6699 9.96829 35.4522 10.1209 35.2504 10.2718C35.1561 10.3424 35.0567 10.42 34.9927 10.4741C34.9238 10.5289 34.8635 10.5992 34.9452 10.5095C34.8956 10.5626 34.9254 10.5983 34.9587 10.4081C34.9482 10.4026 34.9412 10.3937 34.9425 10.3787C34.9438 10.3636 34.9524 10.3532 34.9638 10.3485C34.9657 10.3203 34.966 10.2878 34.9637 10.249C34.9516 10.2431 34.9423 10.229 34.9395 10.202C34.9366 10.1743 34.9422 10.1543 34.9525 10.1439C34.9418 10.0736 34.9231 9.98856 34.8839 9.88411C34.8635 9.77708 34.5682 9.27569 34.3052 9.09597C34.0431 8.8939 33.9123 8.8591 33.8344 8.82648C33.6932 8.77881 33.7267 8.79627 33.7651 8.79943C33.859 8.81342 34.0468 8.82979 34.236 8.83995C34.6239 8.86114 35.0612 8.86905 35.5 8.87257C36.3783 8.87873 37.2891 8.86729 38.2133 8.85139C40.0668 8.81824 41.9228 8.76561 43.8356 8.70752C66.8245 7.94009 91.7152 6.87382 94.7828 6.75666ZM88.2465 11.5894C88.1398 11.5931 88.1417 11.648 88.2484 11.6443C88.355 11.6406 88.3531 11.5857 88.2465 11.5894Z" fill="#3B79FF"/>
</svg>
