<svg width="994" height="718" viewBox="0 0 994 718" fill="none" xmlns="http://www.w3.org/2000/svg">
<path opacity="0.15" d="M58.7082 53.138C56.771 53.7282 54.789 54.0721 53.0156 53.9787C42.19 53.4932 53.3965 48.6432 42.9813 42.6654C32.9546 37.4182 50.5875 30.6268 37.967 30.2753C37.174 30.2603 37.3668 29.0297 35.9472 28.8156C35.494 28.7504 35.1029 28.673 34.7755 28.5818C29.6197 26.9906 40.2396 22.8595 21.4339 22.0827C19.7939 22.0189 11.9561 23.2111 11.7649 22.4719C11.4386 21.3914 8.52812 20.1572 8.22613 19.0528C8.23334 19.0515 8.24054 19.0502 8.24775 19.049C7.65821 17.043 2.05944 -2.40955 0.821748 -9.83146C0.82169 -9.83186 0.821633 -9.83227 0.821531 -9.83279C0.575741 -11.2739 0.488949 -12.259 0.624704 -12.571C1.261 -14.021 -0.290521 -19.5619 0.0492663 -19.9185C0.35278 -20.2156 2.9756 -20.0759 3.87143 -20.61C5.1738 -21.3806 5.61196 -23.4753 6.63678 -23.8753C8.40899 -24.5588 11.6579 -24.667 13.1299 -25.4025C14.3802 -26.0033 14.905 -29.7875 16.1829 -30.4579C16.2049 -30.4694 16.2279 -30.4811 16.2519 -30.4931C17.7842 -31.3592 30.158 -35.1006 33.7261 -35.8988C45.3518 -38.6876 57.4775 -40.7807 69.7738 -44.7975C71.8865 -45.4843 73.8765 -46.1218 76.0347 -46.7965C86.11 -49.9596 96.4377 -52.9689 105.802 -56.1139C130.6 -64.4499 162.095 -68.8773 184.599 -75.8216C193.62 -78.5609 221.172 -86.3285 265.188 -97.2498C296.474 -104.761 335.93 -114.608 385.584 -120.653C387.124 -120.384 390.188 -120.552 393.91 -121.453C394.194 -121.521 394.481 -121.594 394.771 -121.671C404.572 -122.698 414.741 -123.569 425.399 -124.129C424.21 -123.787 423.908 -123.524 424.999 -123.434C426.407 -123.326 431.327 -123.992 434.766 -123.833C437.609 -123.716 442.033 -122.393 444.677 -122.932C445.846 -123.173 443.123 -123.973 444.666 -124.559C444.815 -124.621 445.091 -124.685 445.44 -124.748C448.705 -124.776 452.025 -124.763 455.409 -124.686C455.66 -124.435 456.509 -124.161 458.166 -123.853C461.325 -123.257 468.836 -123.498 474.286 -123.701C475.574 -123.589 476.885 -123.465 478.191 -123.33C488.453 -121.758 497.399 -122.407 517.257 -112.52C522.356 -109.556 529.209 -105.393 536.187 -95.6883C543.469 -86.2135 547.073 -69.1806 544.804 -58.2233C540.019 -36.1087 532.238 -31.0542 527.215 -24.7953C526.216 -23.742 525.213 -22.6891 524.206 -21.6369C518.504 -16.91 509.787 -8.36587 510.821 -7.88877C482.497 21.2661 443.92 55.1923 426.143 79.7298C426.319 78.6369 426.62 77.4863 426.27 77.3853C424.735 79.3214 424.569 80.083 424.687 80.3035C424.828 80.4742 425.252 80.3142 425.741 78.8599C426.091 77.4235 427.127 75.6135 427.259 68.2236C427.225 64.4712 426.678 58.6566 423.617 51.9973C420.641 45.3323 415.216 39.6134 411.074 36.8096C405.311 32.9273 402.74 32.5766 401.115 32.063C399.557 31.6803 398.955 31.6562 398.65 31.6291C398.08 31.6043 398.598 31.6504 399.211 31.5582C400.524 31.3947 402.463 30.8307 404.621 30.0957C410.209 30.2848 416.904 30.2971 423.679 30.2893C444.066 30.2237 465.843 30.0852 487.767 30.3196C484.55 30.8713 482.349 31.6214 486.592 31.6648C487.051 31.6686 492.283 30.8241 494.543 30.3921C535.336 30.9008 577.367 32.4643 620.463 35.0023C622.89 35.145 625.339 35.2918 627.81 35.4426C627.485 35.5818 627.587 35.7353 628.28 35.8762C631.687 36.5827 646.041 37.3524 652.229 37.0112C681.978 39.0238 712.146 41.3777 742.704 44.0282C751.18 45.503 758.922 47.1741 759.711 47.1107C760.659 47.0368 759.376 46.1225 760.01 45.5535C763.485 45.8679 766.967 46.1863 770.438 46.5071C768.448 46.9614 765.727 47.0434 765.72 47.1166C765.656 48.5836 772.418 47.3387 774.709 47.4061C779.897 47.5582 784.481 48.1058 784.983 47.8716C832.214 52.3837 880.289 57.3843 929.663 64.1567C950.329 67.0467 971.078 70.078 992.725 74.0856C1015.18 79.5918 1034.22 78.138 1070.21 101.043C1080.66 108.906 1090.05 118.279 1098.04 130.029C1102.04 135.998 1105.72 142.418 1108.89 150.919C1110.44 155.233 1111.94 160.013 1112.84 166.829C1113.01 173.842 1116.41 182.402 1105.58 202.239C1047.47 268.816 1003.54 285.637 951.52 322.037C918.733 343.175 884.445 362.994 850.162 381.211C848.353 381.801 846.664 382.377 846.421 382.506C846.172 382.638 844.791 383.689 843.278 384.86C825.251 394.368 807.195 403.549 789.119 412.535C707.386 453.043 625.365 490.671 546.813 528.999C515.356 544.542 476.391 563.844 459.131 576.719C459.022 576.806 459.167 576.709 459.897 576.005C460.651 575.2 462.068 574.087 464.951 569.763C466.503 567.26 468.359 564.276 470.081 558.184C471.702 552.734 472.279 543.371 469.977 535.693C464.536 519.057 457.145 515.585 454.093 512.905C450.822 510.638 449.145 509.971 448.17 509.511C447.075 509.033 446.689 508.912 446.397 508.808C445.912 508.648 446.241 508.765 446.755 508.892C449.114 509.498 453.877 510.383 458.438 511.119C467.807 512.632 478.077 514.006 488.125 515.309C508.457 517.925 528.815 520.333 549.347 522.756C718.666 542.503 877.491 560.234 1013.96 574.616C1038.15 577.15 1061.45 579.432 1084.63 582.017C1096.71 583.466 1107.21 584.391 1122.5 587.523C1126.94 588.713 1130.2 588.641 1141.34 593.987C1142.09 594.382 1142.71 594.716 1143.68 595.286C1144.68 595.868 1145.72 596.523 1146.81 597.278C1149.11 598.913 1151.05 600.253 1154.66 603.997C1160.73 609.135 1170.19 628.297 1166.72 643.3C1163.8 658.073 1158.26 663.205 1155.65 666.657C1152.29 670.461 1150.48 671.892 1148.47 673.566C1141.46 678.997 1138.51 680.278 1135.13 682.23C1131.87 684.012 1129.25 685.337 1126.53 686.698C1040.92 727.868 968.451 751.817 912.238 769.431C850.479 788.214 810.93 797.894 799.293 801.128C741.659 816.55 683.672 830.327 627.224 844.722C581.842 856.595 536.582 868.009 498.317 884.735C452.216 904.954 406.192 925.373 372.189 951.025C366.176 955.584 360.584 960.183 357.312 963.482C356.518 964.277 355.903 964.958 355.618 965.31C355.338 965.641 355.387 965.712 356.064 964.675C356.672 963.556 358.301 961.56 359.781 954.924C361.539 948.833 360.244 933.872 353.442 924.997C353.758 925.44 354.076 925.877 354.398 926.307C365.423 941.928 388.29 953.757 419.06 962.414C472.11 977.226 528.613 990.865 583.446 1003.67C615.845 1011.18 647.957 1018.32 679.343 1024.91C688.54 1026.86 729.232 1034.75 736.33 1037.26C737.88 1037.82 739.284 1042.18 742.477 1043.78C761.176 1053.2 757.135 1082.62 774.835 1091.7C783.959 1096.38 770.204 1096.3 778.56 1100.77C780.48 1101.8 790.426 1107.95 790.802 1108.39C792.814 1110.69 788.097 1110.65 786.881 1111.58C785.223 1112.86 784.292 1115.72 779.555 1116.06C778.375 1116.15 775.748 1114.93 775.239 1115.06C774.153 1115.34 780.432 1118.46 779.343 1118.75C778.789 1118.88 774.009 1117.25 773.582 1117.42C773.16 1117.57 775.24 1120.28 774.818 1120.44C774.396 1120.59 782.553 1121.68 782.131 1121.84C781.733 1121.98 783.375 1123.44 783.062 1124.11C782.68 1124.88 779.241 1126.68 779.141 1127.31C778.939 1128.68 785.897 1132.61 784.177 1133.27C782.484 1133.9 775.429 1129.5 774.915 1129.76C773.792 1130.32 781.854 1139.97 774.889 1139.33C771.327 1139.01 769.746 1136.9 768.521 1136.49C765.037 1135.34 751.818 1132.34 748.342 1131.84C693.243 1123.96 706.529 1116.5 639.905 1101.33C615.459 1095.75 590.221 1089.95 564.351 1083.94C510.628 1071.35 454.637 1058.48 396.381 1042.67C359.364 1032.32 313.496 1014.56 284.644 972.873C277.035 962.786 275.451 946.96 277.606 938.438C279.506 929.48 282.518 924.393 284.977 920.284C290.058 912.301 294.442 907.889 298.617 903.664C306.897 895.548 314.487 889.65 321.864 884.008C369.3 848.845 418.534 828.367 465.059 807.532C514.552 786.119 561.904 774.81 606.585 762.856C629.591 756.898 651.965 751.35 673.592 745.938C696.747 739.807 768.305 723.86 870.902 693.665C871.239 693.731 871.684 693.778 872.254 693.787C872.982 693.8 874.173 693.153 875.516 692.279C878.302 691.432 881.152 690.546 884.003 689.677C884.504 689.952 885.537 689.979 887.666 689.4C889.116 689.006 891.071 688.333 893.69 687.27C894.105 686.935 894.52 686.601 894.933 686.267C952.19 667.99 1020.19 643.743 1088.37 610.47C1090.63 609.329 1092.63 608.292 1094.25 607.397C1094.98 606.99 1095.67 606.581 1095.93 606.415C1096.16 606.287 1096.16 606.169 1094.62 607.416C1094.2 607.761 1093.68 608.212 1093.04 608.831C1092.34 609.51 1091.33 610.555 1090.2 611.968C1088.29 614.839 1082.8 620.237 1082.04 635.08C1081.83 641.959 1083.97 649.664 1087.04 654.968C1089.67 659.625 1092.56 662.688 1094.95 664.826C1098.79 668.184 1101.36 669.363 1102.57 669.989C1104.02 670.687 1104.58 670.871 1104.99 671.025C1105.4 671.169 1105.46 671.183 1105.44 671.178C1105.32 671.149 1104.79 671.015 1103.99 670.85C1097.14 669.448 1085.38 668.078 1074.55 666.89C1052.47 664.511 1029.06 662.288 1005.11 659.86C903.063 649.502 791.987 637.495 674.701 624.593C674.658 624.576 674.637 624.561 674.594 624.544C672.98 623.918 669.869 623.702 667.716 623.827C633.119 620.012 598.05 616.101 562.468 612.076C562.201 611.823 561.634 611.596 560.672 611.484C559.71 611.372 559.092 611.461 558.777 611.646C557.243 611.48 555.7 611.3 554.173 611.122C553.938 610.86 553.366 610.621 552.391 610.507C551.415 610.393 550.805 610.494 550.503 610.693C546.633 610.252 542.854 609.821 539.172 609.399C518.464 607.022 497.987 604.67 476.893 602.023C466.378 600.69 455.734 599.318 444.382 597.523C438.581 596.569 433.073 595.715 425.222 593.794C423.216 593.284 420.994 592.693 418.079 591.708C414.983 590.482 411.871 590.024 403.447 584.4C399.409 581.023 391.103 576.587 385.514 559.004C380.625 540.751 388.266 526.905 391.37 522.175C398.423 512.206 400.584 511.789 402.49 509.84C444.005 479.346 473.104 468.176 508.042 450.011C588.239 410.582 669.707 372.903 749.576 333.01C802.932 306.293 854.415 278.656 903.25 246.857C927.851 230.949 952.008 214.93 975.167 198.527C986.786 190.279 998.061 182.003 1008.49 173.689C1013.63 169.58 1018.66 165.368 1022.75 161.584C1024.82 159.676 1026.65 157.86 1027.88 156.505C1028.5 155.822 1028.94 155.291 1029.13 155.045C1029.22 154.916 1029.25 154.877 1029.25 154.873C1029.26 154.849 1029.2 154.948 1029.48 154.498C1020.64 171.028 1024.04 175.171 1023.7 178.115C1024.07 180.807 1024.41 181.496 1024.51 181.871C1024.74 182.465 1024.3 181.424 1023.56 180.378C1022.03 178.138 1019.35 175.312 1016.27 173.062C1017.82 173.814 1010.79 170.413 1002.99 168.508C995.014 166.365 985.675 164.439 976.246 162.705C957.192 159.224 937.208 156.329 917.205 153.59C814.825 140.259 711.856 131.647 615.046 125.847C548.876 122.009 486.112 120.982 423.69 121.646C415.825 121.652 408.231 121.704 398.88 121.324C393.971 121.017 389.55 121.094 379.791 119.137C374.547 117.086 367.423 119.205 349.794 102.403C340.961 93.5169 335.988 76.934 336.523 67.8905C336.667 58.4928 338.382 53.7986 339.451 50.2599C346.611 31.0956 352.775 25.276 358.501 17.4199C364.194 10.2623 369.582 4.28954 374.885 -1.41853C385.466 -12.7455 395.613 -22.7596 405.521 -32.5328C425.298 -51.9723 443.999 -70.1066 460.864 -87.9479C460.849 -87.9209 460.421 -87.5737 459.282 -85.8816C458.241 -84.1262 455.921 -81.0526 454.398 -73.0113C452.565 -65.2945 455.211 -50.9899 460.774 -43.6773C466.065 -36.1425 470.282 -33.9727 472.385 -32.6466C474.579 -31.42 475.342 -31.2362 475.56 -31.1393C475.759 -31.0702 475.375 -31.1889 474.734 -31.3219C473.419 -31.6053 471.112 -31.9611 468.54 -32.2179C449.003 -34.1465 425.434 -32.7599 403.24 -30.4334C362.113 -26.1202 322.887 -17.0775 286.436 -8.34781C205.576 11.5681 141.429 29.6707 100.427 41.0905C81.2261 46.4899 67.1716 50.5662 58.7082 53.138ZM268.317 -96.8952C272.117 -97.7961 271.868 -98.8554 268.065 -97.9538C266.218 -97.5147 265.305 -97.0349 265.304 -96.7648C265.304 -96.7459 265.308 -96.728 265.317 -96.7112C265.44 -96.4706 266.471 -96.4564 268.317 -96.8952Z" fill="white"/>
</svg>
