<svg width="147" height="132" viewBox="0 0 147 132" fill="none" xmlns="http://www.w3.org/2000/svg">
<path d="M12.8625 0C11.4005 0 9.99837 0.579462 8.96457 1.61091C7.93078 2.64236 7.35 4.04131 7.35 5.5C7.35 6.95869 7.93078 8.35764 8.96457 9.38909C9.99837 10.4205 11.4005 11 12.8625 11H20.5212L0.40425 60.258C0.144651 60.9196 0.00767652 61.6228 0 62.3333C-5.03399e-08 65.7039 0.665396 69.0415 1.9582 72.1555C3.251 75.2696 5.14589 78.099 7.53468 80.4824C9.92346 82.8658 12.7594 84.7564 15.8805 86.0462C19.0016 87.3361 22.3467 88 25.725 88C29.1033 88 32.4484 87.3361 35.5695 86.0462C38.6906 84.7564 41.5265 82.8658 43.9153 80.4824C46.3041 78.099 48.199 75.2696 49.4918 72.1555C50.7846 69.0415 51.45 65.7039 51.45 62.3333C51.4423 61.6228 51.3053 60.9196 51.0457 60.258L30.9288 11H67.9875V99H38.6095C34.2235 99 30.0172 100.738 26.9158 103.833C23.8144 106.927 22.0721 111.124 22.0721 115.5C22.0721 119.876 23.8144 124.073 26.9158 127.167C30.0172 130.262 34.2235 132 38.6095 132H108.412C112.799 132 117.005 130.262 120.106 127.167C123.208 124.073 124.95 119.876 124.95 115.5C124.95 111.124 123.208 106.927 120.106 103.833C117.005 100.738 112.799 99 108.412 99H79.0125V11H116.071L95.9543 60.258C95.6946 60.9196 95.5577 61.6228 95.55 62.3333C95.55 69.1406 98.2603 75.669 103.085 80.4824C107.909 85.2958 114.452 88 121.275 88C128.098 88 134.641 85.2958 139.465 80.4824C144.29 75.669 147 69.1406 147 62.3333C146.992 61.6228 146.855 60.9196 146.596 60.258L126.479 11H134.137C135.6 11 137.002 10.4205 138.035 9.38909C139.069 8.35764 139.65 6.95869 139.65 5.5C139.65 4.04131 139.069 2.64236 138.035 1.61091C137.002 0.579462 135.6 0 134.137 0H12.8625ZM25.725 27.412L37.7423 56.8333H13.7078L25.725 27.412ZM109.258 56.8333L121.275 27.412L133.292 56.8333H109.258Z" fill="#7CA6FF"/>
</svg>
