<svg width="261" height="116" viewBox="0 0 261 116" fill="none" xmlns="http://www.w3.org/2000/svg">
<path fill-rule="evenodd" clip-rule="evenodd" d="M138.069 0.680703C136.485 1.28928 134.935 2.13737 134.624 2.56579C132.998 4.8021 133.962 59.3395 135.919 75.8236C136.882 83.939 137.33 84.3056 143.101 81.6926C146.886 79.9793 147.32 79.5162 150.337 73.9798L153.547 68.0905L155.497 70.9773C158.078 74.7959 160.89 76.4219 164.215 76.0178C167.506 75.6178 175.609 72.0739 177.837 70.0597C181.662 66.6031 184.729 51.3959 183.933 39.8361C183.511 33.7228 183.192 32.3186 181.622 29.7023C179.042 25.4008 176.821 24.4904 171.621 25.6024C165.68 26.8726 161.565 29.7715 159.465 34.166C158.306 36.5906 157.136 37.9677 155.842 38.4282C153.481 39.269 153.063 40.2984 152.696 46.1723C152.391 51.0567 150.713 56.2606 146.626 64.9997C144.717 69.0805 144.126 69.8646 143.973 68.5175C143.082 60.6199 142.232 22.2155 142.641 8.35609C142.89 -0.0663734 142.353 -0.966216 138.069 0.680703ZM208.815 12.3642C205.154 13.7059 204.98 14.4102 207.285 18.5392C209.698 22.8604 209.686 23.0983 206.573 33.7663C204.14 42.1006 202.08 47.4659 198.941 53.6462L197.043 57.3841L196.073 46.5385C195.539 40.5737 194.927 33.1435 194.713 30.0286C194.5 26.913 194.03 23.9969 193.668 23.5487C192.776 22.4393 186.774 24.7132 186.149 26.3968C185.903 27.0608 186.319 34.3991 187.075 42.7045C187.83 51.0099 188.531 60.0321 188.632 62.7537C188.886 69.5926 189.744 70.4356 194.65 68.6662C196.874 67.8641 198.989 66.49 200.138 65.1013C203.885 60.5705 209.14 50.3247 212.519 40.958L215.979 31.3691L217.358 33.3787C218.472 35.0023 218.797 36.6494 219.046 41.9322C219.315 47.6373 219.588 48.8653 221.182 51.522C223.696 55.713 226.461 56.6715 232.499 55.4449C238.733 54.1789 244.54 51.2675 247.198 48.075C251.417 43.0068 258.332 31.8128 259.9 27.5142C261.186 23.9885 261.294 22.9938 260.489 22.1401C259.582 21.1774 259.211 21.2175 255.932 22.6328C253.942 23.4918 252.413 24.5859 252.476 25.1058C252.929 28.8294 238.323 50.6789 235.121 51.068C232.246 51.4173 229.015 49.8472 228.662 47.9287C228.488 46.9834 228.28 45.928 228.198 45.5828C228.117 45.2376 229.895 43.3818 232.151 41.4581C236.54 37.7157 241.491 30.7549 243.363 25.6943C244.924 21.4724 244.553 14.0357 242.641 11.2493C240.659 8.36137 238.694 7.77929 234.535 8.84858C227.164 10.745 222.641 14.5987 221.382 20.0564C220.67 23.1439 220.393 23.5582 219.686 22.5974C219.221 21.9658 218.419 19.9769 217.904 18.1783C216.832 14.4342 214.014 10.9916 212.283 11.3086C211.635 11.4277 210.075 11.9021 208.815 12.3642ZM231.453 15.5986C229.968 18.023 228.043 28.2782 228.1 33.458L228.143 37.3584L230.712 33.8507C234.391 28.8261 236.095 23.1838 235.492 18.0192C234.927 13.1831 233.467 12.3082 231.453 15.5986ZM88.1552 40.8736C83.901 42.6092 82.0038 44.2593 80.2361 47.7634C78.3859 51.4309 76.9215 62.6485 77.2409 70.7064L77.4891 76.9708L73.2289 83.6929L68.968 90.4143L68.386 87.4983C68.0658 85.8939 67.7668 81.4487 67.7222 77.6188C67.6064 67.7913 65.9896 55.1651 64.6669 53.7622C63.7205 52.7587 63.2581 52.7759 60.2567 53.9253C56.4955 55.3659 50.7248 61.413 47.3587 67.4413L45.4231 70.9068L45.1965 64.9083C45.0718 61.6086 44.9467 58.4766 44.9182 57.9481C44.8169 56.0545 42.6123 55.7401 39.4558 57.1683L36.465 58.5224L36.6156 69.5145C36.752 79.4467 36.4259 87.7401 35.345 101.784C34.8374 108.384 35.6093 109.241 40.3902 107.387L43.8192 106.057L44.815 100.895C47.4655 87.1533 57.1694 60.8116 58.188 64.5935C58.4189 65.4509 58.8004 71.9057 59.0366 78.9378C59.5291 93.6378 60.2898 100.969 61.4988 102.678C62.2014 103.672 62.7706 103.727 64.8192 102.999C69.3563 101.389 70.8272 100.065 74.4532 94.3266C76.4341 91.1921 78.2929 88.5965 78.5832 88.5591C78.8735 88.5217 79.2587 89.6714 79.439 91.1138C79.855 94.4484 82.2636 100.458 84.0047 102.506C85.4678 104.228 86.4974 104.084 91.9069 101.402C95.5156 99.6137 97.8001 96.3515 104.167 83.8933C111.252 70.03 113.047 65.5789 112.249 63.8416C111.873 63.0231 111.217 62.627 110.693 62.903C110.194 63.166 108.598 63.8578 107.145 64.442C105.066 65.2769 104.229 66.1811 103.212 68.6871C101.273 73.4719 90.3701 94.9337 89.8475 94.9972C89.0054 95.0996 87.9849 90.8365 87.0914 83.4845L86.2042 76.1836L92.7244 64.9738C98.9295 54.3043 101.402 48.1289 100.952 44.4256C100.764 42.8728 98.7045 40.0802 97.1461 39.264C95.9438 38.6347 91.8441 39.3687 88.1552 40.8736ZM167.554 34.2127C165.898 38.4176 165.302 43.9161 165.936 49.1351C166.385 52.8243 166.361 52.8805 164.065 53.6033C162.028 54.245 161.726 54.6637 161.623 56.9969C161.432 61.327 162.281 66.5383 163.466 68.2975C164.073 69.2002 165.549 70.2663 166.745 70.667C168.829 71.3646 168.989 71.2898 170.573 68.8655C173.842 63.8595 176.02 50.7281 175.323 40.227C174.842 32.9833 173.72 30.6108 170.78 30.625C169.256 30.6327 168.736 31.2115 167.554 34.2127ZM88.605 47.4196C87.3848 50.3522 85.4656 61.3197 86.0883 61.8036C86.2821 61.9547 87.5317 59.8763 88.8651 57.1862C91.2773 52.3185 92.8959 46.0325 92.0177 44.9426C91.0508 43.7414 89.7408 44.6924 88.605 47.4196ZM17.1659 58.7232C16.7932 58.8949 14.8068 59.7754 12.7519 60.6806C6.43567 63.4635 3.60527 68.1463 2.92066 76.947C2.8176 78.2661 2.21346 79.4842 1.49992 79.8081C-0.174791 80.5677 -0.297691 82.2124 0.401921 94.5118C1.05886 106.054 1.54823 108.326 4.15432 111.938C6.71495 115.489 9.08641 115.904 14.652 113.776C20.7702 111.436 22.3189 110.282 25.6385 105.585C31.4894 97.3067 34.2904 84.7963 32.884 73.2239C32.1559 67.233 30.2684 63.0142 26.8891 59.8239C24.6691 57.7275 24.1044 57.5448 21.1356 57.956C19.3253 58.2065 17.5388 58.5522 17.1659 58.7232ZM14.4704 65.2814C13.6592 66.6511 12.7515 68.7512 12.4519 69.9486C11.5344 73.6178 10.995 82.006 11.4236 85.9327C11.7802 89.1971 11.6312 89.7613 10.2181 90.5004C8.64205 91.324 8.62838 91.5294 9.61514 99.6491C10.506 106.979 10.8029 108.08 12.1414 109.017C13.443 109.929 13.8329 109.922 14.8967 108.97C18.4713 105.771 23.2664 94.776 24.1692 87.7114C25.4992 77.302 23.7295 66.8624 20.1301 63.8806C17.8089 61.9585 16.2018 62.3562 14.4704 65.2814Z" fill="white"/>
</svg>
