<svg width="120" height="132" viewBox="0 0 120 132" fill="none" xmlns="http://www.w3.org/2000/svg">
<path d="M35.4475 122.801C29.9406 117.971 26.0125 111.595 24.1735 104.502C22.3346 97.409 22.6697 89.9265 25.1353 83.0264L37.9056 47.451C38.1993 46.6289 38.7211 45.9077 39.4099 45.372C40.0987 44.8362 40.9259 44.5082 41.7945 44.4263C42.663 44.3444 43.5369 44.5121 44.3136 44.9097C45.0903 45.3073 45.7375 45.9183 46.1794 46.6711L48.038 49.9706C49.4769 52.3103 49.7766 55.19 48.8773 57.7696L43.0018 74.2075L45.5798 76.4873L81.3127 35.9924C83.4112 33.5927 87.0084 33.3528 89.4666 35.4525C91.8048 37.5522 92.0446 41.2118 90.0062 43.5515L63.3264 73.7276L66.8037 76.7872L99.479 39.7119C101.577 37.3123 105.235 37.0723 107.573 39.172C109.971 41.2717 110.211 44.9913 107.993 47.331L75.3772 84.4062L78.8546 87.4658L106.973 55.5499C109.072 53.1502 112.729 52.9103 115.067 55.01C117.405 57.1097 117.705 60.7693 115.607 62.989L87.4881 95.0249L90.9055 98.0845L109.911 76.5472C112.009 74.1476 115.667 73.9076 118.065 76.0073C120.463 78.107 120.643 81.7666 118.545 83.9863L87.3681 119.502C84.1781 123.134 80.3036 126.101 75.9664 128.233C71.6291 130.364 66.9143 131.62 62.0917 131.926C57.2691 132.233 52.4335 131.584 47.8615 130.019C43.2896 128.453 39.0711 126 35.4475 122.801ZM57.5707 49.3107L74.5978 29.9932C76.0367 28.3734 77.8354 26.9936 79.8139 26.2137L82.0922 21.5343C82.4311 20.8583 82.6317 20.1213 82.6823 19.3667C82.7329 18.6121 82.6323 17.855 82.3866 17.1398C82.1409 16.4245 81.755 15.7656 81.2514 15.2016C80.7479 14.6376 80.1368 14.1799 79.4542 13.8552C78.0849 13.1982 76.5123 13.1068 75.0762 13.6008C73.6402 14.0947 72.4561 15.1344 71.78 16.4949L56.7314 47.331C57.0311 47.9909 57.3909 48.6508 57.5707 49.3107ZM54.0334 41.9917V42.2916L70.7008 8.27596C71.3516 6.8983 71.4333 5.31946 70.9282 3.8819C70.4231 2.44435 69.372 1.26402 68.0028 0.596942C67.3268 0.260283 66.5906 0.0615018 65.8371 0.0121631C65.0835 -0.0371757 64.3277 0.0639124 63.6136 0.309547C62.8995 0.555182 62.2413 0.940459 61.6773 1.44296C61.1134 1.94547 60.6549 2.55517 60.3286 3.2366L44.5006 35.6925C48.3977 36.3524 51.8151 38.5721 54.0334 41.9917ZM16.6817 79.9668L29.4521 44.3913C31.0708 39.8919 34.848 36.8323 39.3446 35.8124L52.1748 9.47581C52.8379 8.10671 52.9326 6.53071 52.4384 5.09195C51.9441 3.6532 50.901 2.46858 49.5368 1.79679C48.8608 1.46013 48.1246 1.26135 47.3711 1.21201C46.6175 1.16267 45.8617 1.26376 45.1476 1.50939C44.4335 1.75503 43.7753 2.14031 43.2113 2.64281C42.6474 3.14532 42.1889 3.75502 41.8626 4.43645L18.0607 53.0302L15.063 51.5304L16.322 34.0727C16.5618 31.373 15.4826 28.6734 13.5641 26.7536L10.8062 23.994C7.98832 21.4143 3.37182 23.1541 3.07204 26.9936L0.0743151 64.7288C-0.705094 76.9672 4.69081 88.6657 14.1636 95.9848C14.0437 90.7054 14.8231 85.2461 16.6817 79.9668Z" fill="#7CA6FF"/>
</svg>
