<svg width="120" height="140" viewBox="0 0 120 140" fill="none" xmlns="http://www.w3.org/2000/svg">
<path opacity="0.5" d="M57.3333 133V69.398L50.1667 77V111.398L30.1502 130.949C29.1479 131.928 27.8711 132.594 26.4811 132.864C25.0911 133.134 23.6503 132.995 22.341 132.466C21.0316 131.936 19.9125 131.039 19.125 129.888C18.3375 128.737 17.917 127.384 17.9167 126V81.13L47.2283 52.5H37.0517L10.75 78.19V105H7.16667C5.26595 105 3.44308 104.263 2.09907 102.95C0.755057 101.637 0 99.8565 0 98V45.5C0 43.6435 0.755057 41.863 2.09907 40.5503C3.44308 39.2375 5.26595 38.5 7.16667 38.5H46.5833L37.9833 31.5H17.9167V14C17.9169 12.6752 18.302 11.3776 19.0273 10.2581C19.7525 9.13854 20.7882 8.24303 22.0138 7.67561C23.2395 7.10818 24.6049 6.89214 25.9513 7.05259C27.2977 7.21303 28.5698 7.74338 29.6198 8.582L57.3333 30.73V7C57.3333 5.14348 58.0884 3.36301 59.4324 2.05025C60.7764 0.737498 62.5993 0 64.5 0C66.4007 0 68.2236 0.737498 69.5676 2.05025C70.9116 3.36301 71.6667 5.14348 71.6667 7V30.73L99.3802 8.582C100.43 7.74338 101.702 7.21303 103.049 7.05259C104.395 6.89214 105.76 7.10818 106.986 7.67561C108.212 8.24303 109.247 9.13854 109.973 10.2581C110.698 11.3776 111.083 12.6752 111.083 14V31.5H91.0167L82.4167 38.5H121.833C123.734 38.5 125.557 39.2375 126.901 40.5503C128.245 41.863 129 43.6435 129 45.5V98C129 99.8565 128.245 101.637 126.901 102.95C125.557 104.263 123.734 105 121.833 105H118.25V78.19L91.9483 52.5H81.7717L111.083 81.13V126C111.083 127.384 110.663 128.737 109.875 129.888C109.088 131.039 107.968 131.936 106.659 132.466C105.35 132.995 103.909 133.134 102.519 132.864C101.129 132.594 99.8521 131.928 98.8498 130.949L78.8333 111.398V77L71.6667 69.398V133C71.6667 134.857 70.9116 136.637 69.5676 137.95C68.2236 139.263 66.4007 140 64.5 140C62.5993 140 60.7764 139.263 59.4324 137.95C58.0884 136.637 57.3333 134.857 57.3333 133Z" fill="#CFD5EF"/>
</svg>
