<svg width="15" height="19" viewBox="0 0 15 19" fill="none" xmlns="http://www.w3.org/2000/svg">
<path d="M14.9992 8.86111C15.0091 9.23897 14.9293 9.61391 14.7658 9.95638C14.6024 10.2989 14.36 10.5995 14.0576 10.8345L3.96583 18.5222C3.60469 18.79 3.17599 18.9559 2.72513 18.9993H2.47034C2.08681 19.0087 1.70667 18.9268 1.36258 18.7607C0.95286 18.565 0.607446 18.2607 0.365586 17.8824C0.12476 17.5054 -0.00198988 17.0693 2.36213e-05 16.6247V2.36619C0.00121996 1.93857 0.119827 1.51914 0.343431 1.15178C0.573873 0.786589 0.898671 0.487374 1.28503 0.28434C1.66989 0.0807212 2.10402 -0.0167451 2.54106 0.00235241C2.97811 0.0214499 3.40164 0.156394 3.76643 0.39277L13.8693 6.98528C14.1905 7.19238 14.4564 7.47105 14.6447 7.7985C14.8435 8.12189 14.9647 8.48522 14.9992 8.86111Z" fill="white"/>
</svg>
