<svg width="179" height="83" viewBox="0 0 179 83" fill="none" xmlns="http://www.w3.org/2000/svg">
<path d="M108.197 47.5887C108.09 47.4995 108.014 47.3898 107.987 47.2542L108.634 47.6681C108.876 47.2493 108.971 47.0853 109.473 46.2189C109.525 46.145 109.581 46.065 109.636 45.9761C109.934 45.4237 110.069 45.1202 110.234 44.9049L109.767 44.5854C109.952 44.51 110.093 44.4335 110.086 44.188L110.489 44.4639C110.503 44.4138 110.513 44.3577 110.511 44.292C110.509 44.25 110.596 44.1163 110.599 44.0169C110.594 43.7489 110.707 43.6282 110.807 43.4496C110.888 43.2697 111.02 43.022 110.585 42.428C110.518 42.3294 109.988 42.1263 110.003 42.0244C110.036 41.8673 109.899 41.5771 109.93 41.4179C109.93 41.4181 109.931 41.4182 109.932 41.4183C109.991 41.1279 110.511 38.3045 110.772 37.2657C110.772 37.2656 110.772 37.2656 110.772 37.2655C110.823 37.0636 110.864 36.9292 110.889 36.8938C111.01 36.7303 111.158 35.9272 111.204 35.8956C111.24 35.869 111.467 36.0139 111.591 35.9944C111.766 35.9643 111.944 35.7219 112.097 35.7374C112.353 35.7599 112.855 36.0088 113.188 36.0855C113.453 36.1426 113.979 35.8189 114.307 35.9312C114.46 35.9832 114.785 36.1264 115.184 36.3537C115.343 36.4546 115.81 36.7558 115.952 36.8796C116.302 37.1525 116.718 37.5269 116.88 37.6936C117.645 38.474 118.304 39.3375 119.168 40.0678C120.014 40.7843 120.811 41.5789 121.583 42.2515C123.286 43.7314 124.643 46.1118 126.027 47.5781C126.61 48.2295 128.421 50.1953 130.936 54.0244C131.032 54.1908 131.309 54.6841 131.377 54.8634C132.523 57.4151 133.573 60.6934 134.419 64.0879C134.383 64.2259 134.422 64.4852 134.592 64.7722C134.776 65.4939 134.958 66.2063 135.141 66.876C135.082 66.8107 135.043 66.7994 135.041 66.8735C135.039 66.9675 135.184 67.2612 135.205 67.4688C135.224 67.6449 135.106 67.9483 135.221 68.0687C135.272 68.1208 135.339 67.9426 135.443 68.0001C135.453 68.0054 135.466 68.0172 135.48 68.0327C135.535 68.2011 135.59 68.3653 135.644 68.5189C135.615 68.5419 135.594 68.5941 135.586 68.6793C135.567 68.8463 135.765 69.122 135.928 69.2375C136.091 69.6007 136.231 69.7887 136.253 69.8052C136.073 69.5976 135.787 69.2733 135.126 68.9147C134.496 68.5605 133.296 68.2322 132.124 68.4454C132.001 68.4661 131.913 68.4849 131.843 68.5005C131.49 68.6184 131.59 68.6286 131.636 68.6269C131.695 68.6246 131.807 68.5931 131.901 68.5573C132.102 68.4811 132.267 68.377 132.227 68.3107C134.791 67.2075 137.896 65.5826 140.999 63.844C140.862 63.9924 140.779 64.1078 140.813 64.1446C141.649 63.743 141.438 63.5055 142.216 63.3568C142.861 63.2266 143.082 62.9228 143.331 62.5111C145.168 61.4413 147.052 60.3048 148.958 59.1108C148.792 59.3122 148.712 59.4911 148.984 59.3221C149.016 59.3024 149.282 58.9845 149.397 58.8341C150.733 57.9935 152.085 57.1226 153.452 56.222C154.974 55.2196 156.496 54.2038 158.045 53.1525C158.037 53.185 158.056 53.1974 158.109 53.1784C158.373 53.0868 159.282 52.4418 159.623 52.0747C161.54 50.7577 163.482 49.398 165.373 48.0158C165.963 47.7139 166.511 47.4753 166.547 47.4241C166.588 47.365 166.441 47.334 166.422 47.2376C166.623 47.0866 166.831 46.9287 167.018 46.7842C166.973 46.9332 166.838 47.0951 166.848 47.1005C166.975 47.2674 167.201 46.7606 167.289 46.6638C167.411 46.5379 167.51 46.4477 167.552 46.4036C167.598 46.3551 167.535 46.4005 167.492 46.4144C167.437 46.4672 167.419 46.4752 167.211 46.6964C167.147 46.7665 167.067 46.8549 166.959 46.9891C166.904 47.0566 166.842 47.1359 166.77 47.2356C166.734 47.2856 166.695 47.3408 166.652 47.403C166.631 47.4341 166.61 47.467 166.587 47.502C166.578 47.5161 166.509 47.6212 166.433 47.751C166.22 48.3083 165.4 48.9524 165.645 51.847C165.791 53.2677 166.908 55.2279 168.307 56.1111C169.405 56.8382 170.132 56.9936 170.788 57.1245C172.056 57.3218 172.65 57.1699 173.089 57.0996C173.517 57.013 173.76 56.9296 173.95 56.8638C174.308 56.7322 174.301 56.7227 174.356 56.7003C174.392 56.6834 174.398 56.6801 174.398 56.6801C174.396 56.6812 174.366 56.6976 174.332 56.7166C174.264 56.7556 174.179 56.8083 174.108 56.8554C173.969 56.9438 173.86 57.0525 173.99 56.9295C171.687 59.2335 168.952 62.804 165.122 65.8831C160.93 69.2404 156.647 72.3442 152.101 75.3726C149.814 76.8824 147.505 78.3511 144.904 79.7749C143.579 80.4852 142.281 81.1782 140.423 81.8578C139.915 82.0366 139.425 82.1971 138.713 82.3578C138.014 82.4819 137.244 82.736 135.421 82.5108C134.581 82.3803 133.107 82.0331 131.69 80.7682C130.208 79.4418 129.595 77.7111 129.441 76.4634C129.302 75.365 129.411 74.5793 129.517 73.9844C129.614 73.4642 129.744 73.0152 129.886 72.6003C130.458 71.0294 130.857 70.307 131.284 69.394C131.394 69.2739 131.494 69.1594 131.502 69.1425C131.512 69.1232 131.536 68.9819 131.559 68.8254C135.044 61.8368 137.941 54.8766 137.8 49.2042C137.571 42.3964 137.554 35.6666 135.394 32.7787C130.636 25.3175 124.005 19.7455 117.259 17.5104C110.438 15.2226 103.774 13.5619 98.1769 12.7244C90.3274 11.537 83.9302 12.242 79.2536 12.8625C75.5421 13.3736 73.1454 13.8419 72.368 13.9937C67.4315 14.9891 62.5028 16.178 57.7742 17.6255C51.5921 19.4901 46.1592 21.9168 40.7822 25.3593C39.1453 26.3958 37.5279 27.4931 35.9429 28.6369C31.4589 31.8763 26.869 35.528 22.9932 39.5115C20.3729 42.2048 18.0186 45.1406 15.9363 48.209C15.5282 48.7891 13.8549 51.5083 13.4248 51.9276C13.3293 52.0162 12.7654 51.8481 12.5117 52.004C11.0258 52.9151 7.42365 50.7274 5.97983 51.6223C5.23632 52.0844 5.48464 50.9494 4.78108 51.3619C4.6184 51.4563 3.67664 51.8957 3.61534 51.8994C3.29158 51.9215 3.3792 51.5335 3.28311 51.374C3.15247 51.1567 2.81072 50.9004 2.85095 50.4862C2.86003 50.3825 3.05867 50.2409 3.05086 50.1903C3.03523 50.0828 2.53555 50.4088 2.51848 50.3003C2.51111 50.2459 2.79858 49.951 2.78546 49.9052C2.77363 49.8605 2.39759 49.8632 2.38574 49.8185C2.37378 49.7739 2.09504 50.3827 2.08325 50.338C2.07178 50.2958 1.86068 50.3407 1.78253 50.2728C1.69335 50.1932 1.52756 49.7949 1.45056 49.7471C1.28239 49.6445 0.670009 49.9757 0.617661 49.7919C0.56702 49.6117 1.24076 49.3015 1.2176 49.2426C1.16716 49.1142 -0.181332 49.1796 0.020575 48.6411C0.12304 48.3651 0.415081 48.3654 0.487727 48.289C0.693153 48.0718 1.30537 47.1561 1.43216 46.8962C3.4635 42.7678 4.08383 44.3352 7.45833 39.7323C9.54056 36.955 11.9008 34.0834 14.5702 31.2999C20.3609 25.2925 27.1794 19.8829 34.4942 15.2159C40.7085 11.1898 47.8482 8.06437 54.3392 6.11295C56.7475 5.36471 59.0943 4.71627 61.3634 4.1379C63.2742 3.67033 68.9336 2.20327 77.6436 0.945505C77.8403 0.917761 78.0378 0.890332 78.2362 0.863255C78.2649 0.88233 78.3031 0.901978 78.3522 0.920187C78.4154 0.943599 78.5239 0.889214 78.6474 0.808565C78.8974 0.775024 79.1506 0.740051 79.4081 0.708989C79.478 0.799047 79.6805 0.838277 80.2766 0.686491C80.3163 0.653944 80.356 0.62142 80.3958 0.588922C85.8203 -0.067718 92.6427 -0.361509 99.9407 0.711347C106.768 1.71062 113.746 3.45326 121.205 5.89779C126.969 7.81382 132.391 11.1825 136.982 15.4491C136.983 15.4532 136.984 15.4558 136.985 15.4599C137.053 15.6085 137.271 15.788 137.448 15.8856C139.749 18.0701 141.854 20.47 143.771 23.0536C143.761 23.0928 143.773 23.1476 143.822 23.2156C143.872 23.283 143.924 23.316 143.964 23.3183C144.047 23.4301 144.129 23.5437 144.209 23.6563C144.196 23.6948 144.207 23.7525 144.258 23.8243C144.308 23.8948 144.363 23.9299 144.404 23.93C144.904 24.632 145.393 25.3527 145.866 26.0853C150.962 34.4698 149.811 42.13 150.337 48.8462C150.548 60.1985 144.825 70.0949 141.883 76.729C141.896 76.5674 142.154 76.3785 142.026 74.8192C141.923 73.9261 141.451 72.4886 140.223 71.3696C139.038 70.2976 137.9 70.0536 137.345 69.9599C136.767 69.8716 136.422 69.9036 136.262 69.9152C136.079 69.9318 135.997 69.9505 135.97 69.955C135.913 69.9669 136.012 69.942 136.155 69.8884C136.764 69.6681 137.812 69.1542 138.801 68.6061C140.832 67.4827 142.942 66.1387 145.02 64.7493C149.17 61.9593 153.315 58.9213 157.063 55.8863C159.521 53.9222 161.657 51.1435 164.848 47.8389C165.663 47.0265 166.32 46.5532 166.973 46.1102C167.299 45.8926 167.619 45.694 167.964 45.4966C168.138 45.3974 168.316 45.2991 168.526 45.1909C168.635 45.1351 168.746 45.0793 168.893 45.0102C169.06 44.9356 169.163 44.8757 169.648 44.6978C169.976 44.5957 170.35 44.4221 171.428 44.3295C171.979 44.3039 172.76 44.2631 173.995 44.6641C174.644 44.9179 175.175 45.0442 176.354 46.0647C177.383 46.9851 178.116 48.3997 178.338 49.5569C178.753 51.9419 178.136 52.9823 177.899 53.631C177.753 53.955 177.623 54.1829 177.511 54.368C177.485 54.4111 177.45 54.4672 177.436 54.4891C177.426 54.5036 177.417 54.5179 177.408 54.5319C177.39 54.5598 177.372 54.5866 177.355 54.6123C177.217 54.8174 177.108 54.9599 177.014 55.0771C176.828 55.3079 176.703 55.44 176.599 55.5497C176.537 55.6145 176.485 55.6668 176.437 55.7142C176.235 55.9109 176.151 55.9827 176.06 56.0637C175.88 56.2222 175.77 56.3128 175.661 56.4029C175.438 56.5863 175.251 56.7347 175.076 56.8722C174.717 57.154 174.369 57.4202 174.039 57.6692C173.362 58.1802 172.716 58.656 172.061 59.1327C170.753 60.0843 169.469 60.9948 168.182 61.8942C165.618 63.685 163.074 65.408 160.572 67.0683C151.63 72.7219 145.834 77.0621 134.291 81.3051C130.064 81.9496 127.382 79.5263 126.272 78.2023C122.265 72.7271 122.575 69.5253 121.646 66.7957C120.957 64.089 120.262 61.9241 119.419 60.0081L119.922 60.9637C114.921 53.5207 109.51 48.7178 108.197 47.5887ZM130.497 53.6352C130.689 53.9335 130.82 53.8507 130.627 53.551C130.433 53.252 130.303 53.3374 130.497 53.6352Z" fill="#CFF810"/>
</svg>
