<svg width="167" height="34" viewBox="0 0 167 34" fill="none" xmlns="http://www.w3.org/2000/svg">
<path d="M12.6905 0.619411C14.1209 -0.20646 15.8833 -0.20646 17.3138 0.61941L27.6926 6.61164C29.1231 7.43751 30.0043 8.96378 30.0043 10.6155V22.6C30.0043 24.2517 29.1231 25.778 27.6926 26.6039L17.3138 32.5961C15.8833 33.422 14.1209 33.422 12.6905 32.5961L2.31164 26.6039C0.881194 25.778 0 24.2517 0 22.6V10.6155C0 8.96378 0.881193 7.43751 2.31164 6.61164L12.6905 0.619411Z" fill="#3B79FF"/>
<path d="M14.8803 16.4841L6.58998 11.7822L14.8803 6.95651L23.418 11.7822V21.3098L14.8803 26.2592V16.4841Z" fill="white"/>
<path fill-rule="evenodd" clip-rule="evenodd" d="M78.7294 4.7714C78.3183 4.7714 77.985 5.10488 77.985 5.51625V24.5872C77.985 24.9985 78.3183 25.332 78.7294 25.332H81.436C81.8539 25.332 82.0753 25.3741 82.3105 25.0286C82.3973 24.9012 82.6185 24.4951 82.735 24.3942C82.9378 24.2185 83.3332 24.1657 83.6276 24.3757C83.77 24.4773 83.9176 24.5722 84.0704 24.6606C85.126 25.271 86.2592 25.5762 87.7288 25.5762C89.3019 25.5762 90.5801 25.2303 91.822 24.5385C93.0846 23.8263 94.0781 22.8395 94.8026 21.578C95.5477 20.3165 95.9203 18.8312 95.9203 17.122C95.9203 15.3925 95.5477 13.897 94.8026 12.6355C94.0781 11.374 93.0846 10.3974 91.822 9.70556C90.5801 9.01376 89.3019 8.66786 87.7288 8.66786C86.3213 8.66786 85.2192 8.97307 84.1635 9.58348C83.6332 9.89011 82.8285 9.5472 82.8285 8.93433V5.51625C82.8285 5.10488 82.4952 4.7714 82.0841 4.7714H78.7294ZM88.9035 21.1202C88.2825 21.4864 87.6978 21.6696 86.8906 21.6696C86.0833 21.6696 85.3589 21.4864 84.7172 21.1202C84.0756 20.754 83.6978 20.2351 83.3252 19.5637C82.9527 18.8719 82.7664 18.058 82.7664 17.122C82.7664 16.1657 82.9527 15.3518 83.3252 14.6804C83.6978 14.0089 84.0756 13.4901 84.7172 13.1238C85.3589 12.7576 86.0833 12.5745 86.8906 12.5745C87.6978 12.5745 88.2825 12.7576 88.9035 13.1238C89.5451 13.4901 90.0522 14.0089 90.4248 14.6804C90.8181 15.3518 91.0147 16.1657 91.0147 17.122C91.0147 18.058 90.8181 18.8719 90.4248 19.5637C90.0522 20.2351 89.5451 20.754 88.9035 21.1202Z" fill="#09081F"/>
<path d="M99.6786 4.77141C99.2675 4.77141 98.9343 5.10488 98.9343 5.51625V19.6857C98.9343 21.639 99.4828 23.1142 100.58 24.1112C101.677 25.0879 103.209 25.5762 105.175 25.5762C105.92 25.5762 106.634 25.4948 107.317 25.332C107.799 25.2067 108.232 25.0432 108.617 24.8415C108.921 24.682 109.03 24.3127 108.906 23.9921L108.171 22.0998C107.992 21.6391 107.414 21.4813 106.943 21.632C106.611 21.7384 106.25 21.7916 105.858 21.7916C105.216 21.7916 104.709 21.6085 104.337 21.2423C103.964 20.8557 103.778 20.3165 103.778 19.6247V13.6856C103.778 13.2742 104.111 12.9407 104.522 12.9407H107.194C107.605 12.9407 107.938 12.6072 107.938 12.1959V10.0231C107.938 9.61175 107.605 9.27827 107.194 9.27827H104.522C104.111 9.27827 103.778 8.94479 103.778 8.53343V5.51626C103.778 5.1049 103.444 4.77142 103.033 4.77142L99.6786 4.77141Z" fill="#09081F"/>
<path d="M150.668 4.7714C150.257 4.7714 149.924 5.10488 149.924 5.51625V24.5872C149.924 24.9985 150.257 25.332 150.668 25.332H154.023C154.434 25.332 154.767 24.9985 154.767 24.5872V17.2136C154.767 16.1962 154.933 15.362 155.264 14.7109C155.616 14.0598 156.092 13.5817 156.692 13.2764C157.313 12.9509 158.007 12.7881 158.772 12.7881C159.849 12.7881 160.677 13.1035 161.256 13.7343C161.856 14.365 162.157 15.3417 162.157 16.6642V24.5872C162.157 24.9985 162.49 25.332 162.901 25.332H166.256C166.667 25.332 167 24.9985 167 24.5872V15.9317C167 14.2633 166.7 12.9 166.1 11.842C165.499 10.7636 164.671 9.97007 163.616 9.46139C162.581 8.93237 161.401 8.66786 160.076 8.66786C158.648 8.66786 157.375 8.96289 156.257 9.55296C156.237 9.56381 156.216 9.57476 156.196 9.58578C155.615 9.90011 154.767 9.51716 154.767 8.85612V5.51625C154.767 5.10488 154.434 4.7714 154.023 4.7714H150.668Z" fill="#09081F"/>
<path fill-rule="evenodd" clip-rule="evenodd" d="M67.0119 25.5762C65.1076 25.5762 63.4311 25.2099 61.9822 24.4774C60.554 23.745 59.4466 22.748 58.6601 21.4864C57.8735 20.2046 57.4802 18.7498 57.4802 17.122C57.4802 15.4739 57.8632 14.0191 58.629 12.7576C59.4156 11.4757 60.4815 10.4787 61.8269 9.7666C63.1723 9.03411 64.6937 8.66786 66.391 8.66786C68.0261 8.66786 69.4957 9.01376 70.7997 9.70556C72.1244 10.377 73.1697 11.3537 73.9356 12.6355C74.7014 13.897 75.0843 15.4129 75.0843 17.1831C75.0843 17.3662 75.074 17.5798 75.0533 17.824C75.0196 18.1882 74.7132 18.4649 74.3477 18.4649H63.2818C62.8053 18.4649 62.4487 18.9112 62.6464 19.345C62.6994 19.4612 62.7574 19.5748 62.8205 19.6857C63.2344 20.3572 63.8036 20.876 64.5281 21.2423C65.2732 21.5882 66.1426 21.7611 67.1361 21.7611C68.0261 21.7611 68.8023 21.6289 69.4647 21.3644C69.9227 21.187 70.3528 20.9501 70.755 20.6538C71.087 20.4093 71.5568 20.4185 71.8389 20.7192L73.437 22.4226C73.7015 22.7045 73.7091 23.1453 73.425 23.4072C72.7486 24.0305 71.946 24.5297 71.0171 24.9047C69.858 25.3524 68.5229 25.5762 67.0119 25.5762ZM62.7584 14.3141C62.6646 14.4822 62.5833 14.659 62.5145 14.8445C62.3553 15.2737 62.711 15.6876 63.1686 15.6876H69.6568C70.1124 15.6876 70.4674 15.2771 70.312 14.8485C70.2404 14.6512 70.1546 14.4629 70.0546 14.2836C69.7027 13.6529 69.2163 13.1645 68.5953 12.8186C67.9744 12.4524 67.2499 12.2693 66.422 12.2693C65.5941 12.2693 64.8593 12.4524 64.2176 12.8186C63.5967 13.1645 63.1102 13.663 62.7584 14.3141Z" fill="#09081F"/>
<path d="M45.2234 25.332C44.9254 25.332 44.6562 25.1542 44.539 24.88L38.1588 9.94973C37.9488 9.4583 38.3091 8.91203 38.8432 8.91203H42.2163C42.5176 8.91203 42.7891 9.09374 42.9042 9.37234L46.6565 18.4564C46.9082 19.0658 47.7688 19.0714 48.0285 18.4653L51.9281 9.36337C52.0455 9.08955 52.3145 8.91203 52.6123 8.91203H55.6489C56.1835 8.91203 56.5438 9.45926 56.3328 9.95082L49.9244 24.8811C49.8069 25.1547 49.538 25.332 49.2404 25.332H45.2234Z" fill="#09081F"/>
<path fill-rule="evenodd" clip-rule="evenodd" d="M114.994 24.4774C116.443 25.2099 118.12 25.5762 120.024 25.5762C121.535 25.5762 122.87 25.3524 124.029 24.9047C124.958 24.5297 125.761 24.0305 126.437 23.4072C126.721 23.1453 126.714 22.7045 126.449 22.4226L124.851 20.7192C124.569 20.4185 124.099 20.4093 123.767 20.6538C123.365 20.9501 122.935 21.187 122.477 21.3644C121.815 21.6289 121.038 21.7611 120.148 21.7611C119.155 21.7611 118.285 21.5882 117.54 21.2423C116.816 20.876 116.247 20.3572 115.833 19.6857C115.77 19.5748 115.712 19.4612 115.659 19.345C115.461 18.9112 115.818 18.4649 116.294 18.4649H127.36C127.725 18.4649 128.032 18.1882 128.066 17.824C128.086 17.5798 128.097 17.3662 128.097 17.1831C128.097 15.4129 127.714 13.897 126.948 12.6355C126.182 11.3537 125.137 10.377 123.812 9.70556C122.508 9.01376 121.038 8.66786 119.403 8.66786C117.706 8.66786 116.185 9.03411 114.839 9.7666C113.494 10.4787 112.428 11.4757 111.641 12.7576C110.875 14.0191 110.492 15.4739 110.492 17.122C110.492 18.7498 110.886 20.2046 111.672 21.4864C112.459 22.748 113.566 23.745 114.994 24.4774ZM116.181 15.6876C115.723 15.6876 115.368 15.2737 115.527 14.8445C115.596 14.659 115.677 14.4822 115.771 14.3141C116.123 13.663 116.609 13.1645 117.23 12.8186C117.872 12.4524 118.606 12.2693 119.434 12.2693C120.262 12.2693 120.987 12.4524 121.608 12.8186C122.229 13.1645 122.715 13.6529 123.067 14.2836C123.167 14.4629 123.253 14.6512 123.324 14.8485C123.48 15.2771 123.125 15.6876 122.669 15.6876H116.181Z" fill="#09081F"/>
<path d="M139.803 25.5762C138.002 25.5762 136.398 25.2201 134.99 24.508C133.583 23.7755 132.475 22.7683 131.668 21.4864C130.882 20.2046 130.488 18.7498 130.488 17.122C130.488 15.4739 130.882 14.0191 131.668 12.7576C132.475 11.4757 133.583 10.4787 134.99 9.7666C136.398 9.03411 138.002 8.66786 139.803 8.66786C141.562 8.66786 143.094 9.03411 144.398 9.7666C145.491 10.3637 146.344 11.1825 146.958 12.2231C147.159 12.5644 147.011 12.9942 146.66 13.1791L144.169 14.4946C143.813 14.6829 143.376 14.5478 143.133 14.2263C142.775 13.7541 142.358 13.3866 141.883 13.1238C141.241 12.7576 140.537 12.5745 139.772 12.5745C138.944 12.5745 138.199 12.7576 137.536 13.1238C136.874 13.4901 136.346 14.0089 135.953 14.6804C135.58 15.3518 135.394 16.1657 135.394 17.122C135.394 18.0783 135.58 18.8922 135.953 19.5637C136.346 20.2351 136.874 20.754 137.536 21.1202C138.199 21.4864 138.944 21.6696 139.772 21.6696C140.537 21.6696 141.241 21.4966 141.883 21.1507C142.358 20.888 142.775 20.5154 143.133 20.0328C143.376 19.7047 143.818 19.5665 144.178 19.7595L146.663 21.0917C147.012 21.2788 147.157 21.7092 146.954 22.0492C146.341 23.0754 145.489 23.895 144.398 24.508C143.094 25.2201 141.562 25.5762 139.803 25.5762Z" fill="#09081F"/>
</svg>
