<svg width="212" height="117" viewBox="0 0 212 117" fill="none" xmlns="http://www.w3.org/2000/svg">
<path fill-rule="evenodd" clip-rule="evenodd" d="M143.276 0.225229C143.276 0.362347 143.403 0.340676 143.609 0.168316C143.869 -0.0494126 143.959 -0.054477 144.026 0.14482C144.072 0.284774 144.186 0.351814 144.279 0.293888C144.371 0.23576 144.505 0.371866 144.575 0.596278C144.645 0.820691 144.821 1.00439 144.966 1.00439C145.201 1.00439 145.494 1.56097 145.554 2.11835C145.566 2.22975 145.676 2.41203 145.798 2.52343C146.092 2.79159 146.306 3.43485 146.102 3.43485C146.013 3.43485 145.929 3.74109 145.915 4.11538C145.901 4.48946 145.658 5.51491 145.374 6.39393C145.09 7.27274 144.632 9.1768 144.357 10.6249C144.081 12.0731 143.402 15.0352 142.847 17.2074C141.663 21.8474 141.066 24.8733 141.305 25.0232C141.399 25.0821 141.477 25.0566 141.477 24.9665C141.477 24.8763 141.882 24.5434 142.377 24.2268C142.872 23.91 143.345 23.5455 143.427 23.4166C143.509 23.2876 144.002 22.9656 144.522 22.7007C145.042 22.4357 145.426 22.15 145.374 22.0659C145.323 21.9817 145.55 21.8 145.878 21.6623C146.207 21.5243 146.476 21.3315 146.476 21.2337C146.476 21.1357 146.611 21.0557 146.776 21.0557C146.941 21.0557 147.076 20.9645 147.076 20.8531C147.076 20.7417 147.198 20.6506 147.348 20.6506C147.498 20.6506 147.96 20.3772 148.376 20.043C148.791 19.7088 149.259 19.4354 149.415 19.4354C149.571 19.4354 149.643 19.3442 149.575 19.2328C149.507 19.1214 149.633 19.0303 149.854 19.0303C150.075 19.0303 150.327 18.9138 150.415 18.7712C150.503 18.6288 150.98 18.3352 151.475 18.1187C151.97 17.9021 152.424 17.6571 152.483 17.5742C152.652 17.3379 154.467 16.3973 154.754 16.3973C154.897 16.3973 155.274 16.1696 155.594 15.8911C155.913 15.6129 156.263 15.4148 156.37 15.4508C156.478 15.4871 156.732 15.3603 156.935 15.1691C157.137 14.9781 157.701 14.7087 158.189 14.5704C158.676 14.4323 159.075 14.251 159.075 14.1675C159.075 13.9314 160.225 13.5069 160.462 13.6555C160.579 13.7284 160.674 13.6823 160.674 13.5528C160.674 13.3878 160.989 13.3552 161.724 13.4435C163.381 13.6424 164.074 13.7969 164.074 13.9674C164.074 14.0543 164.299 14.1827 164.574 14.2526C165.24 14.4217 165.258 15.341 164.608 15.9596C164.352 16.2033 162.845 17.0804 161.259 17.909C155.704 20.811 153.257 22.2065 153.015 22.6109C152.927 22.7582 152.732 22.8785 152.582 22.8785C152.432 22.8785 152.279 22.9506 152.242 23.0387C152.167 23.219 150.321 24.4988 150.136 24.4988C150.07 24.4988 149.647 24.8048 149.196 25.1787C148.745 25.5526 148.173 25.9235 147.925 26.0028C147.676 26.0822 147.215 26.367 146.9 26.636C146.122 27.2989 144.274 28.5496 144.073 28.5496C143.983 28.5496 143.879 28.6178 143.843 28.7015C143.806 28.7849 143.237 29.2179 142.578 29.6635C140.302 31.203 140.354 31.1111 139.8 34.5244C139.194 38.26 138.736 42.5561 138.56 46.1704C138.487 47.6742 138.4 49.0539 138.368 49.2364C138.335 49.4189 138.247 53.6114 138.173 58.5531C138.04 67.4198 138.228 73.4328 138.677 74.6278C138.867 75.1347 138.885 75.1392 139.485 74.8253C139.822 74.6486 140.273 74.3268 140.487 74.1099C140.701 73.893 141.026 73.7155 141.21 73.7155C141.393 73.7155 141.495 73.6667 141.436 73.6072C141.377 73.5476 141.602 73.2058 141.935 72.8477C143.165 71.5259 144.876 69.2228 144.873 68.8919C144.871 68.7043 144.734 67.9681 144.569 67.2562C144.016 64.8831 143.671 61.7069 143.486 57.31C143.308 53.0629 143.316 52.3356 143.57 49.6135C143.638 48.8894 143.739 47.7957 143.796 47.1831C144.246 42.2822 145.155 37.8783 146.093 36.055C146.946 34.3983 148.762 32.7802 150.106 32.4796C151.609 32.1436 154.894 32.353 155.039 32.7942C155.077 32.9104 155.27 33.0054 155.468 33.0054C155.962 33.0054 157.244 34.6431 157.699 35.8565C158.687 38.4899 159.139 46.1461 158.584 50.8287C158.196 54.0937 157.991 54.939 156.66 58.7468C156.099 60.3517 155.587 61.8468 155.523 62.0696C155.323 62.7599 153.436 66.4902 152.943 67.1701C152.686 67.5248 152.475 67.8999 152.475 68.0036C152.475 68.1075 152.297 68.4224 152.078 68.7033C151.684 69.2107 151.684 69.2228 152.068 70.3528C152.281 70.9788 152.749 71.9887 153.108 72.5969C154.049 74.1907 154.548 74.2172 155.726 72.7361C156.139 72.2166 156.913 70.88 157.447 69.766C158.363 67.8527 160.074 63.0957 160.074 62.4625C160.074 62.3021 160.203 62.1709 160.361 62.1709C160.519 62.1709 160.705 61.9886 160.774 61.7658C160.844 61.543 161.058 61.3607 161.25 61.3607C161.441 61.3607 161.759 61.2412 161.956 61.0954C162.3 60.841 162.297 60.7391 161.88 58.6575C160.919 53.8468 160.619 47.9537 161.173 44.7526C161.942 40.3069 163.863 36.0562 166.374 33.2462C167.81 31.6389 169.565 30.1699 170.05 30.1699C170.149 30.1699 170.279 30.0431 170.337 29.8883C170.489 29.4873 171.627 28.9544 172.629 28.8147C173.099 28.7493 173.532 28.6172 173.59 28.5212C173.739 28.2774 176.01 28.3057 176.973 28.5637C178.03 28.8471 179.073 29.3366 179.073 29.5499C179.073 29.6439 179.287 29.7755 179.55 29.8422C180.212 30.0105 180.928 31.5951 180.935 32.9041C180.942 34.4246 180.66 40.9611 180.573 41.3095C180.531 41.4766 180.441 42.5164 180.374 43.62C180.28 45.1569 180.312 45.6659 180.512 45.7943C180.707 45.9194 180.684 45.9624 180.422 45.9648C179.996 45.9684 179.981 46.1066 180.365 46.4954C180.579 46.7122 180.608 46.924 180.473 47.2839C180.351 47.6066 180.36 47.8217 180.497 47.9075C180.613 47.9798 180.658 48.2304 180.597 48.4643C180.534 48.708 180.622 49.0405 180.803 49.2427C181.087 49.56 181.087 49.6273 180.812 49.9064C180.643 50.0771 180.446 50.4913 180.373 50.8267C180.3 51.1619 180.158 51.4364 180.057 51.4364C179.955 51.4364 179.895 51.5064 179.922 51.5921C179.95 51.6778 179.77 51.9684 179.523 52.238C179.275 52.5074 179.073 52.8529 179.073 53.0056C179.073 53.1581 178.989 53.2306 178.886 53.1666C178.784 53.1024 178.64 53.1482 178.567 53.2683C178.423 53.5043 177.468 53.9529 177.223 53.8994C177.14 53.8816 177.073 55.2297 177.073 56.8954C177.073 60.1955 176.892 61.0164 176.187 60.9143C175.781 60.8556 175.775 60.7724 175.85 56.9555C175.906 54.1319 175.865 53.0567 175.7 53.0567C175.547 53.0567 175.473 53.6558 175.473 54.8915C175.473 55.9005 175.406 56.6841 175.323 56.6325C175.24 56.5808 175.179 55.891 175.187 55.0993C175.2 53.8401 175.159 53.6736 174.865 53.768C174.433 53.9071 174.041 53.4261 174.094 52.8209C174.183 51.7973 174.069 51.2338 173.773 51.2338C173.608 51.2338 173.466 51.12 173.458 50.9806C173.449 50.8415 173.41 50.5517 173.37 50.3368C173.331 50.1219 173.426 48.1168 173.582 45.8809C174.071 38.8571 174.348 33.0139 174.198 32.8622C174.119 32.782 173.793 32.9864 173.473 33.3165C173.153 33.6466 172.527 34.279 172.082 34.7215C171.638 35.164 171.273 35.5906 171.273 35.6692C171.273 35.7478 171.161 35.9341 171.023 36.0834C170.04 37.1503 168.387 41.6704 167.777 44.9551C167.503 46.4373 167.502 51.7661 167.776 53.7655C168.274 57.3926 169.27 62.1111 170.19 65.2019C170.69 66.8795 172.463 70.83 172.944 71.3377C173.075 71.4759 173.374 71.8406 173.608 72.1483L174.034 72.7075L174.824 71.4394C175.892 69.7229 177.392 66.7015 178.872 63.2848C179.547 61.7253 180.351 59.9025 180.659 59.2341C181.645 57.0904 181.818 56.6418 182.535 54.3732C183.772 50.4607 184.464 47.1063 184.531 44.7001C184.568 43.3942 184.37 40.27 184.173 39.0331C184.133 38.7812 184.051 38.1651 183.991 37.6638C183.931 37.1625 183.748 35.6586 183.584 34.3219C183.42 32.9851 183.235 31.3446 183.173 30.6762C183.111 30.0078 183.02 29.1876 182.972 28.8534C182.82 27.8022 182.686 26.1823 182.27 20.3765C182.047 17.2739 181.784 14.1295 181.684 13.389C181.526 12.2161 181.375 8.87097 181.447 8.14386C181.461 8.00471 181.6 7.89068 181.756 7.89068C181.911 7.89068 182.069 7.82223 182.106 7.73878C182.142 7.65534 182.471 7.37462 182.835 7.11517C183.444 6.68275 183.627 6.6552 185.035 6.78503C185.88 6.8628 186.662 6.99911 186.772 7.08762C186.882 7.17613 187.058 7.24196 187.164 7.23385C187.638 7.1978 188.106 8.34214 188.47 10.4269C189.592 16.8556 189.885 18.4931 190.055 19.2808C190.157 19.7558 190.303 20.6455 190.378 21.2582C190.453 21.8709 190.544 22.6 190.579 22.8785C190.615 23.157 190.848 25.4355 191.097 27.9419C191.346 30.4484 191.571 32.5311 191.598 32.5703C191.624 32.6096 191.851 32.4956 192.103 32.3172C192.354 32.1387 192.693 31.9927 192.854 31.9927C193.208 31.9927 196.015 30.628 196.164 30.3831C196.271 30.2075 200.734 27.9419 200.972 27.9419C201.137 27.9419 203.838 26.7853 204.348 26.4968C205.575 25.8019 209.389 25.9476 210.475 26.7306C210.783 26.9528 211.245 27.5668 211.502 28.0953C211.921 28.9573 211.972 29.3575 211.997 31.9927C212.042 36.7627 211.556 41.4178 210.167 49.5122C209.899 51.0718 209.412 53.9428 209.084 55.8922C208.125 61.5908 205.714 73.1667 205.36 73.7706C205.244 73.9681 204.87 74.1656 204.528 74.2093C204.186 74.2531 203.715 74.3928 203.481 74.5198C203.247 74.6468 202.878 74.694 202.663 74.6245C202.447 74.5551 202.27 74.586 202.27 74.693C202.27 75.0596 200.623 74.4884 200.519 74.0858C200.466 73.8786 200.32 73.7283 200.196 73.752C200.072 73.7757 199.764 73.7241 199.511 73.6372C199.092 73.4936 199.062 73.3951 199.178 72.5341C199.247 72.0142 199.607 70.1762 199.978 68.4496C201.049 63.4552 201.809 59.6325 202.272 56.9049C202.509 55.5124 202.873 53.4162 203.082 52.2465C203.424 50.325 204.49 43.4339 204.757 41.4107C205.067 39.0696 205.27 36.6298 205.393 33.7603L205.531 30.5656L203.951 31.296C203.081 31.6978 202.145 32.16 201.87 32.323C201.595 32.4861 200.997 32.7901 200.541 32.9987C199.335 33.5504 197.833 34.6672 196.513 35.9947C194.916 37.5994 194.582 38.1499 194.178 39.8417C193.769 41.5559 193.406 42.0937 192.293 42.6355C191.846 42.853 191.431 43.1574 191.372 43.3119C191.312 43.4667 191.351 44.7427 191.458 46.1475C191.565 47.5525 191.75 50.3882 191.869 52.4491C192.332 60.4894 193.774 73.3135 194.26 73.7155C194.328 73.7712 194.369 74.0307 194.353 74.2922C194.337 74.5536 194.681 76.5027 195.117 78.6234C195.976 82.8042 195.975 82.8611 194.948 84.0138C194.607 84.3968 194.505 84.8318 194.425 86.2541C194.321 88.0929 193.996 89.1135 193.631 88.7437C193.494 88.6047 193.495 88.0321 193.635 86.9735C193.754 86.0667 193.769 85.2159 193.669 84.9501C193.574 84.698 193.558 84.4199 193.634 84.332C193.709 84.2441 193.512 84.3715 193.194 84.6149C192.571 85.0933 191.871 85.2025 191.871 84.8213C191.871 84.6915 191.812 84.6451 191.74 84.7184C191.667 84.7917 191.487 84.75 191.34 84.6261C191.037 84.3717 190.99 85.3771 191.068 90.3931C191.108 92.9544 191.082 93.1908 190.767 93.1274C190.453 93.0644 190.419 92.6603 190.396 88.8046L190.371 84.5513H189.871H189.372L189.426 86.3742C189.455 87.3767 189.494 90.3652 189.511 93.0154C189.538 97.3465 189.506 97.8686 189.194 98.1801C188.867 98.507 188.83 98.5038 188.54 98.1214C188.287 97.788 188.26 97.3933 188.387 95.8935C188.472 94.8909 188.556 91.9743 188.573 89.4122C188.591 86.8501 188.668 84.2982 188.744 83.7412C189.025 81.682 189.039 81.412 188.863 81.412C188.765 81.412 188.738 81.2708 188.803 81.0985C188.871 80.9196 188.769 80.6719 188.566 80.5218C188.315 80.3357 188.279 80.2158 188.445 80.1125C188.573 80.0321 188.639 79.9023 188.591 79.8241C188.544 79.7459 188.447 79.2736 188.377 78.7747C188.306 78.2757 188.154 77.503 188.038 77.0574C187.922 76.6118 187.804 76.0194 187.775 75.7409C187.746 75.4624 187.446 73.5484 187.109 71.4876C186.771 69.4268 186.384 66.542 186.247 65.0769L185.999 62.4131L185.52 63.4566C185.256 64.0306 184.858 64.9102 184.635 65.4115C182.446 70.3403 180.348 73.9073 179.003 74.9865C177.792 75.9584 177.344 76.1503 175.398 76.5304C173.055 76.9879 171.15 76.7947 170.331 76.0164C170.024 75.7251 169.301 75.1309 168.724 74.696C168.146 74.2612 167.672 73.8399 167.671 73.7597C167.669 73.6797 167.421 73.3309 167.119 72.9848C166.817 72.6384 166.166 71.5686 165.672 70.6074C165.178 69.6459 164.716 68.8583 164.646 68.8571C164.575 68.8556 164.466 69.0596 164.402 69.3103C164.279 69.7987 162.14 73.6675 161.786 74.0416C161.67 74.1652 161.293 74.5753 160.95 74.9531C159.668 76.3635 158.732 76.8877 156.257 77.5824C154.432 78.0946 151.451 78.096 151.762 77.5846C151.809 77.5081 151.696 77.4279 151.512 77.4064C150.565 77.2966 149.438 76.7767 149.593 76.5215C149.652 76.4263 149.563 76.3485 149.397 76.3485C149.231 76.3485 149.023 76.2345 148.934 76.0954C148.503 75.4217 147.498 74.6958 147.224 74.8599C146.921 75.0401 145.28 76.4075 144.662 76.993C144.23 77.4029 142.181 78.575 141.711 78.6812C141.527 78.7227 141.062 78.8529 140.678 78.9704C140.293 79.0879 139.596 79.1841 139.128 79.1841C138.287 79.1841 138.277 79.1928 138.277 79.8992C138.277 81.058 137.293 81.1096 137.176 79.9572C137.149 79.6989 137.116 79.3933 137.102 79.2778C137.088 79.1622 136.798 79.0461 136.458 79.02L135.839 78.9722L135.982 80.9018C136.073 82.1425 136.051 82.9215 135.918 83.0837C135.805 83.2225 135.681 83.6095 135.642 83.9437C135.6 84.3099 135.468 83.8117 135.309 82.6904C135.103 81.2346 134.983 80.8534 134.761 80.9399C134.553 81.0207 134.477 80.8815 134.477 80.421C134.477 79.7524 134.153 79.5496 134.038 80.1461C134 80.341 134.051 81.109 134.149 81.8527C134.313 83.0807 134.29 83.2553 133.904 83.7527L133.478 84.3004L133.204 83.6156C133.038 83.2034 132.885 81.7575 132.818 79.9811C132.733 77.7254 132.605 76.7273 132.277 75.7407C132.015 74.9535 131.767 73.4583 131.641 71.9057C131.4 68.9342 131.561 50.2533 131.861 46.3729C131.968 44.9805 132.116 43.0209 132.188 42.0183C132.26 41.0158 132.429 39.4915 132.563 38.6309C132.843 36.8338 132.742 36.472 132.124 37.056C131.887 37.2787 131.639 37.4612 131.571 37.4612C131.504 37.4612 131.332 37.5753 131.19 37.7144C130.541 38.3486 129.859 38.879 129.692 38.879C129.592 38.879 129.12 39.2371 128.644 39.675C128.167 40.1127 127.585 40.6457 127.35 40.8596C127.115 41.0735 126.778 41.305 126.6 41.3739C126.423 41.4429 126.278 41.6388 126.278 41.8095C126.278 41.9801 126.165 42.1216 126.028 42.1241C125.89 42.1265 125.222 42.6505 124.542 43.2887C122.269 45.422 120.631 46.876 120.102 47.2294C119.45 47.6657 119.245 48.6993 119.513 50.1976C119.755 51.5445 119.557 53.2592 119.16 53.2592C118.94 53.2592 118.877 52.8703 118.87 51.487C118.864 50.4332 118.749 49.4685 118.586 49.1072C118.435 48.773 118.304 48.6136 118.295 48.7527C118.286 48.8921 118.151 49.0059 117.995 49.0059C117.839 49.0059 117.412 49.3273 117.046 49.7201C116.5 50.3068 116.283 50.4123 115.83 50.3115C114.94 50.1136 115.155 50.6969 116.179 51.2597C116.997 51.7098 117.685 53.1379 117.462 53.9247C117.156 55.0061 115.485 57.0434 111.879 60.732C110.394 62.2511 108.824 63.9479 108.39 64.5033C107.955 65.0585 107.505 65.6039 107.39 65.7153C107.274 65.8267 106.911 66.2824 106.582 66.728C106.254 67.1736 105.492 68.067 104.889 68.7131C104.287 69.3594 103.611 70.1256 103.387 70.416C102.994 70.9266 102.682 71.28 101.102 73.0067C100.694 73.4522 99.69 74.5893 98.8705 75.5333C98.0512 76.4776 97.1121 77.4801 96.7839 77.7612C96.4558 78.0426 94.9577 79.5031 93.455 81.0069C91.9524 82.5108 90.5348 83.8988 90.3048 84.0914C89.9432 84.3942 89.9002 84.5995 89.987 85.6104C90.0422 86.2533 90.2214 88.7844 90.385 91.2351C90.5487 93.6858 90.7359 96.0358 90.8007 96.4575C90.8767 96.9501 90.8257 97.3375 90.6583 97.5419C90.4148 97.839 89.6354 98.2476 89.1815 98.316C89.0715 98.3324 88.7281 98.455 88.4186 98.5882C87.7224 98.8876 87.2817 98.8983 87.2817 98.6158C87.2817 98.4951 87.1723 98.4703 87.0317 98.5588C86.5947 98.8345 85.8126 98.6057 84.9849 97.9604C84.5433 97.6161 84.1686 97.3292 84.1524 97.3228C84.1196 97.31 83.9568 95.3806 83.7664 92.7438L83.6414 91.0117L80.6619 94.0299C79.0233 95.6897 77.6826 97.1299 77.6826 97.2302C77.6826 97.3305 77.5476 97.4125 77.3826 97.4125C77.2177 97.4125 77.0827 97.5091 77.0827 97.627C77.0827 97.7449 77.0029 97.7914 76.9053 97.7305C76.8079 97.6695 76.6169 97.7552 76.4809 97.9211C76.345 98.0869 76.2934 98.2226 76.3659 98.2226C76.4387 98.2226 76.1418 98.5872 75.7062 99.0328C75.2707 99.4784 74.8173 99.8429 74.6985 99.8429C74.5799 99.8429 74.4829 99.9468 74.4829 100.074C74.4829 100.201 74.3405 100.41 74.1664 100.539C73.8438 100.778 73.7844 101.334 73.715 104.766C73.693 105.859 73.6148 106.306 73.463 106.21C73.3191 106.12 73.2895 105.697 73.3774 104.984C73.5056 103.944 73.4884 103.886 72.9931 103.695C72.6447 103.561 72.4345 103.293 72.3529 102.88C72.2862 102.542 72.1392 102.207 72.0264 102.137C71.912 102.065 71.8816 102.107 71.9578 102.232C72.1082 102.478 71.4134 102.945 71.2075 102.737C71.1369 102.665 70.9409 102.782 70.7721 102.997C70.5079 103.333 70.4829 104.004 70.5925 107.793C70.6829 110.919 70.6565 112.198 70.5015 112.198C70.3543 112.198 70.2694 111.095 70.2402 108.805C70.2002 105.676 70.1668 104.335 70.1066 103.451C70.0916 103.229 69.9256 103.119 69.6334 103.137C69.0017 103.177 68.9165 103.388 69.0523 104.574C69.1179 105.147 69.1489 106.025 69.1209 106.527C69.0929 107.028 69.0603 109.606 69.0481 112.256C69.0325 115.678 68.9621 117.051 68.8049 116.999C68.6549 116.948 68.5661 115.563 68.5293 112.704C68.4803 108.879 68.4409 108.459 68.109 108.223C67.8092 108.01 67.7224 107.587 67.6298 105.887C67.5448 104.324 67.4386 103.754 67.2003 103.577C67.0261 103.448 66.8837 103.236 66.8837 103.105C66.8837 102.975 66.7487 102.816 66.5837 102.752C66.4155 102.686 66.2837 102.385 66.2837 102.066C66.2837 101.753 66.178 101.461 66.0486 101.418C65.737 101.312 67.0381 99.5381 67.6348 99.2548C68.2438 98.9654 69.4834 97.807 69.4834 97.5273C69.4834 97.4034 69.776 97.1415 70.1334 96.9452C70.7053 96.6311 72.6487 94.8028 77.8326 89.7019C78.6301 88.9172 79.2825 88.2434 79.2825 88.2043C79.2825 87.9679 82.8453 84.2475 83.0717 84.2475C83.1667 84.2475 83.2017 83.4957 83.1497 82.5766C82.9827 79.6216 82.4731 73.6542 82.2722 72.2978C82.1648 71.5737 81.6322 67.7913 81.0887 63.8925C80.5451 59.9936 80.0588 56.5302 80.0078 56.196C79.957 55.8618 79.9022 55.4972 79.8862 55.3859C79.87 55.2745 79.4628 57.1234 78.9813 59.4945C76.6445 70.9997 74.8337 76.5195 71.943 80.9492C70.7957 82.7072 67.895 85.4682 66.9837 85.6695C66.8737 85.6938 66.5587 85.8016 66.2837 85.9087C64.9209 86.4402 62.7663 86.6794 61.5044 86.4394C60.9985 86.3432 60.3841 86.2271 60.1396 86.1817C59.895 86.1364 59.4 85.8769 59.0397 85.6051C58.6793 85.3335 58.126 84.9447 57.81 84.7411L57.2354 84.3709L57.31 88.0054C57.3742 91.1348 57.3428 91.6402 57.0847 91.6402C56.8323 91.6402 56.7829 91.1735 56.7729 88.7034C56.7519 83.5415 56.8049 83.858 55.7914 82.8271C55.3 82.3273 54.8951 81.8098 54.8915 81.6771C54.8879 81.5445 54.7839 81.3727 54.6607 81.2955C54.4997 81.1949 54.4573 81.6342 54.5107 82.8533C54.5555 83.8795 54.5057 84.5722 54.3849 84.604C54.2653 84.6354 54.1432 83.7801 54.0808 82.4773C53.9808 80.3815 53.5898 78.8871 53.276 79.4014C53.1045 79.6825 53.0019 81.5967 53.0465 83.6843C53.0873 85.5942 52.8589 86.327 52.2509 86.2362C51.8188 86.1718 51.8176 86.155 51.7962 80.5006C51.7756 75.1058 51.7482 74.712 51.2332 72.4191C50.9353 71.0935 50.6527 69.9694 50.6049 69.921C50.4589 69.7731 50.2903 71.8927 50.2947 73.8168C50.2971 74.8194 50.2429 77.9182 50.1744 80.7031C50.0958 83.888 50.135 86.8477 50.2799 88.6807C50.4425 90.7374 50.4477 91.658 50.2977 91.8099C49.696 92.4193 49.623 91.5678 49.6522 84.2672C49.6706 79.6454 49.6088 76.9321 49.4832 76.8535C49.2472 76.7058 49.2216 71.1095 49.4522 70.0699C49.5388 69.68 49.5266 68.5863 49.425 67.6394C49.2344 65.8611 49.1942 64.3152 49.2752 61.8671C49.3008 61.0873 49.2912 59.3661 49.2536 58.0421C49.1824 55.5327 49.281 55.1343 50.1254 54.5135C50.3367 54.3582 50.4853 53.993 50.4853 53.6284C50.4853 52.5945 51.271 47.4933 51.993 43.8412C52.6531 40.5013 53.1964 38.5946 54.0566 36.599C54.6383 35.2493 56.6233 32.3978 56.9811 32.3978C57.0537 32.3978 57.2386 32.284 57.392 32.1446C58.2373 31.3768 59.6832 30.4735 59.6874 30.7102C59.6892 30.803 59.7758 30.742 59.88 30.5749C60.131 30.1723 63.6186 30.0167 64.3123 30.3773C64.7461 30.6025 64.7589 30.5956 64.4721 30.29C64.3005 30.1073 63.8506 29.9137 63.4722 29.8596C59.538 29.2973 59.473 29.2838 58.6241 28.8481C57.8716 28.4617 56.6395 28.0321 55.7556 27.8476C55.4094 27.7755 54.9681 27.5393 54.7747 27.3228C54.5811 27.1063 54.2595 26.9293 54.06 26.9293C53.8604 26.9293 53.3828 26.7504 52.9987 26.5319C52.6147 26.3135 52.0044 26.0533 51.6428 25.9536C51.2812 25.854 51.0077 25.6683 51.0353 25.5407C51.0627 25.4133 50.9463 25.309 50.7765 25.309C50.5107 25.309 50.4809 25.6267 50.5629 27.5875C50.6903 30.6367 50.4023 35.8033 49.8772 39.8917C49.3294 44.1567 49.335 44.1154 49.1932 44.9551C49.1274 45.345 48.9827 46.2109 48.8717 46.8793C48.6411 48.2689 47.2136 54.9854 46.7627 56.8036C46.3579 58.4363 45.144 62.436 44.6729 63.6899C44.4635 64.2469 43.969 65.614 43.5738 66.728C43.1786 67.8419 42.3565 69.9382 41.7472 71.3864C40.3349 74.742 40.2425 74.9569 39.5026 76.6159C39.1636 77.3756 38.8865 78.0831 38.8865 78.1882C38.8865 78.2933 38.7979 78.5378 38.6895 78.7312C38.5811 78.9246 38.1813 79.8575 37.801 80.8044C36.8983 83.0515 33.4446 89.9779 32.1961 92.0452C29.203 97.0011 28.9996 97.2359 27.2242 97.7914C26.3811 98.0551 25.6006 98.1671 25.0486 98.1035C24.0809 97.992 22.8881 97.4933 22.8881 97.2004C22.8881 97.0943 22.7531 97.0074 22.5881 97.0074C22.2281 97.0074 22.2131 96.4703 22.4973 93.7668C23.1566 87.4974 23.3396 83.6662 23.399 74.9034C23.464 65.2843 23.3236 59.3544 22.7759 48.6008C22.5735 44.627 21.6768 36.9719 20.7949 31.6889C19.454 23.656 17.9917 19.6664 15.2388 16.5295C14.2785 15.4354 13.9359 15.1853 13.1308 14.9896C11.6132 14.621 10.8718 15.0711 9.62677 17.1175C8.3331 19.2435 7.50338 21.8152 6.88524 25.6128C6.44889 28.2938 6.39549 30.2011 6.68366 32.8029C6.78845 33.7497 6.92564 35.0713 6.98823 35.7397C7.15402 37.5064 7.83855 41.19 8.3053 42.8285C9.66457 47.5991 9.95514 48.5058 11.0316 51.3351C12.6485 55.5847 14.8831 60.4422 16.2241 62.6225C16.4795 63.0381 16.6887 63.4533 16.6887 63.5451C16.6887 63.8451 18.6041 67.5057 19.4566 68.8354C19.914 69.5489 20.2883 70.2536 20.2883 70.4012C20.2883 70.5489 20.6245 71.1954 21.0352 71.8382C21.9661 73.2947 22.4851 74.4313 22.5745 75.2097C22.6515 75.8797 22.3385 76.978 22.0053 77.2063C21.8764 77.2946 21.8694 77.3576 21.9881 77.3612C22.0981 77.3647 22.0643 77.4469 21.9132 77.5439C21.762 77.6409 21.6382 77.9585 21.6382 78.2496C21.6382 78.7243 21.5622 78.779 20.9047 78.779C20.2547 78.779 20.1493 78.8521 19.9797 79.42C19.7328 80.2476 19.2246 80.5828 18.7103 80.2575C18.3729 80.0443 18.3207 80.0856 18.2419 80.6284C18.1933 80.9644 18.2731 81.8934 18.4193 82.6928C18.8819 85.2227 19.079 87.4867 18.8827 88.0099C18.7361 88.4006 18.5553 88.5008 17.9973 88.5008C17.4132 88.5008 17.275 88.4149 17.1686 87.9862C17.0986 87.7032 17.1502 87.0776 17.2834 86.5957C17.4832 85.8729 17.4666 85.3696 17.1882 83.7177C17.0028 82.6167 16.8141 81.3512 16.7689 80.9056C16.6549 79.7799 16.5591 79.5891 16.1067 79.5891C15.6306 79.5891 15.3452 79.1966 15.6726 78.9916C15.845 78.8837 15.8276 78.7772 15.607 78.5919C15.4416 78.4527 15.222 78.3917 15.1188 78.4564C15.0158 78.521 14.8753 78.3464 14.8065 78.0687C14.7375 77.791 14.5913 77.5638 14.4813 77.5638C14.3679 77.5638 14.3355 77.7829 14.4067 78.0701C14.4841 78.382 14.4471 78.5765 14.3105 78.5765C14.1863 78.5765 14.0889 78.2301 14.0889 77.788C14.0889 77.2739 13.9845 76.959 13.789 76.8828C13.624 76.8188 13.489 76.5813 13.489 76.3548C13.489 76.1241 13.3572 75.9435 13.189 75.9435C13.024 75.9435 12.8996 75.875 12.9126 75.7916C12.9876 75.3105 12.8407 74.8818 12.4725 74.5089C12.2433 74.2768 12.1075 74.0345 12.1707 73.9705C12.2339 73.9065 12.2075 73.7546 12.1121 73.6329C12.0167 73.5112 11.735 72.7511 11.486 71.9433C11.2372 71.1356 10.956 70.4749 10.8614 70.4749C10.7667 70.4749 10.6893 70.3297 10.6893 70.1523C10.6893 69.8675 8.94464 64.7482 8.48688 63.6899C8.04473 62.6677 6.73346 58.9426 5.77755 55.9935C5.20001 54.2111 4.44089 51.9782 4.09072 51.0313C2.2783 46.1291 0.78045 40.3421 0.395288 36.7524C0.335494 36.1954 0.219905 35.1928 0.138513 34.5244C0.0569208 33.8561 -0.00507187 31.7142 0.000327594 29.7648C0.00872676 26.8525 0.0905179 25.8592 0.459881 24.195C1.56357 19.2209 2.86864 16.4214 5.3432 13.7191C5.72316 13.3043 5.98633 12.9171 5.92854 12.8583C5.87054 12.7996 6.01273 12.7516 6.24451 12.7516C6.47648 12.7516 6.72506 12.6548 6.79725 12.5365C6.93464 12.3115 7.18581 12.1981 9.24981 11.4276C10.3229 11.0272 10.8281 10.9646 12.6495 11.0069C13.8262 11.0341 14.9238 11.1052 15.0888 11.1645C16.8055 11.7831 19.1238 12.9485 19.9427 13.6045C21.1762 14.5929 21.6882 15.1021 21.6882 15.3402C21.6882 15.4575 21.7558 15.5837 21.8382 15.621C21.9208 15.658 22.2579 16.0985 22.5875 16.5998C22.9173 17.1011 23.2366 17.5568 23.2972 17.6125C23.358 17.6682 23.8222 18.5796 24.3289 19.6379C26.4133 23.991 27.7698 30.8405 29.1822 44.145C29.2356 44.6463 29.327 45.8767 29.3854 46.8793C29.444 47.8818 29.5336 49.3401 29.5844 50.1199C29.6354 50.8996 29.7268 53.2238 29.7878 55.2846C29.8486 57.3454 29.9412 59.5328 29.9936 60.1455C30.0459 60.7582 30.0975 66.1341 30.1079 72.092C30.1253 81.9663 30.1543 82.8721 30.4345 82.3305C30.7771 81.668 34.1095 73.7429 35.8924 69.3507C37.3482 65.7635 39.5044 59.2809 40.1663 56.4998C42.5827 46.3504 43.6646 38.844 43.8012 31.2838C43.8726 27.3362 43.8276 26.301 43.5066 24.4988C42.9435 21.3378 42.7539 20.9056 41.4662 19.8485C38.3397 17.2814 37.6786 16.5455 37.692 15.6479C37.7008 15.0518 38.9439 13.8763 40.0959 13.3744C41.5468 12.7423 43.4118 12.8484 44.6387 13.6328C45.1003 13.9279 45.535 14.1694 45.605 14.1694C45.9634 14.1694 47.3872 16.0935 48.1358 17.589C48.7083 18.7334 49.1487 19.3584 49.4854 19.5052C49.7604 19.6253 50.2477 19.9387 50.5683 20.202C51.1387 20.6702 52.5373 21.3317 52.8053 21.2598C52.8795 21.24 52.9955 21.3023 53.0627 21.3984C53.1301 21.4946 53.5676 21.7441 54.035 21.9527C54.5023 22.1615 54.8859 22.3869 54.8871 22.4536C54.8885 22.5202 55.2258 22.7296 55.637 22.9188C57.0285 23.5592 58.3657 24.1415 58.5757 24.1982C59.3088 24.3963 59.6844 24.5658 59.6844 24.6987C59.6844 24.847 59.9492 24.929 62.6841 25.6288C64.9023 26.1963 65.7534 26.3502 66.6337 26.3433C67.1011 26.3395 67.4836 26.4187 67.4836 26.5189C67.4836 26.6194 67.641 26.6971 67.8336 26.6919C69.1173 26.6562 71.5656 27.0089 72.5481 27.371C73.8376 27.8461 74.4947 28.5534 74.0974 29.0383C73.8598 29.3283 72.5449 30.0483 72.1832 30.0866C72.0732 30.0982 71.8032 30.1901 71.5832 30.2908C71.3632 30.3912 69.767 30.4613 68.0358 30.4461C66.3047 30.4309 64.9275 30.4824 64.9749 30.5604C65.0225 30.6383 65.4816 30.9211 65.9954 31.1886C67.6282 32.0391 68.5597 33.7437 68.9151 36.5316C69.2739 39.3461 68.6585 46.1939 67.6758 50.3224C66.5833 54.9121 64.4373 59.5705 62.2142 62.1774C60.7731 63.8671 59.5182 65.0064 59.0979 65.0064C58.9805 65.0064 58.8845 65.0976 58.8845 65.2089C58.8845 65.3203 58.8171 65.3906 58.7345 65.3649C58.6519 65.3394 58.2164 65.4694 57.7666 65.6541L56.9485 65.9899L57.204 68.0805C57.8692 73.526 59.1813 77.7078 60.9735 80.0955C61.8112 81.2115 63.1187 82.4127 63.5028 82.4192C64.4953 82.436 66.9285 78.5287 68.5443 74.3232C70.6285 68.8986 73.5388 54.7647 74.8625 43.6386C75.474 38.499 75.9586 27.5399 75.664 25.5115C75.4882 24.3011 75.3348 22.9583 75.1207 20.7518L74.9829 19.3341L72.9831 18.9841C71.8832 18.7917 70.6683 18.5845 70.2834 18.5237C69.8984 18.4632 68.9233 18.2633 68.1164 18.0798C66.8915 17.8015 66.6215 17.7916 66.4817 18.0208C66.3455 18.244 66.257 18.2471 66.0078 18.0378C65.8392 17.8961 65.6136 17.8351 65.5064 17.9021C65.3992 17.9694 65.2523 17.9271 65.1799 17.8086C65.0873 17.6567 64.9705 17.6581 64.7855 17.8136C64.5941 17.9744 64.5013 17.9694 64.4437 17.7944C64.3833 17.6109 64.2568 17.6129 63.9056 17.8033C63.4814 18.0332 63.4568 18.0186 63.5844 17.6113C63.6966 17.2534 63.653 17.1856 63.3534 17.2514C63.1503 17.2961 63.0023 17.428 63.0243 17.5443C63.0465 17.6607 62.7993 17.7464 62.4749 17.7348C61.8294 17.7118 61.7606 17.6162 62.1242 17.2479C62.4225 16.9458 62.1894 16.9336 61.6544 17.2236C61.3482 17.3895 61.1707 17.3725 60.9177 17.1532C60.5095 16.7991 59.8202 16.5334 59.9772 16.7906C60.2231 17.1937 59.7016 17.1781 59.1857 16.7671C58.8855 16.5279 58.4023 16.3104 58.1122 16.2837C57.2966 16.2083 57.2832 16.2043 57.3082 16.0428C57.3756 15.6108 57.2532 15.4095 56.9861 15.5134C56.7529 15.6039 56.7035 15.4921 56.7599 15.0006C56.7997 14.6548 56.7605 14.3719 56.6727 14.3719C56.1844 14.3719 55.8848 13.6663 55.8848 12.5156C55.8848 11.4663 55.9406 11.2812 56.2847 11.19C56.5047 11.1317 56.6847 11.0035 56.6847 10.9051C56.6847 10.5079 56.7261 10.4078 57.0343 10.0631C57.2828 9.78482 57.3916 9.76193 57.5168 9.96184C57.6184 10.1239 57.6796 9.975 57.6816 9.56162C57.6832 9.19969 57.7746 8.90338 57.8846 8.90338C57.9946 8.90338 58.0846 8.99452 58.0846 9.10591C58.0846 9.40891 58.6409 9.35017 58.8245 9.02773C58.9125 8.8732 59.3724 8.69274 59.8468 8.62671C60.3209 8.56068 60.7935 8.45394 60.8967 8.38933C60.9999 8.32472 61.0843 8.37374 61.0843 8.4983C61.0843 8.62286 61.1681 8.67228 61.2704 8.60828C61.3728 8.54407 61.5216 8.59815 61.601 8.72818C61.7024 8.89446 61.8252 8.85396 62.0148 8.59147C62.2558 8.25768 62.2841 8.25444 62.2841 8.56088C62.2841 8.74925 62.3967 8.91391 62.5341 8.92667C62.6717 8.93963 62.8741 8.97122 62.9841 8.99715C63.0941 9.02307 63.425 9.05812 63.7198 9.07513C64.0144 9.09194 64.4129 9.26551 64.6053 9.46035C64.7979 9.6554 65.0067 9.82229 65.0697 9.8314C65.1325 9.84052 65.6188 10.0455 66.1504 10.2871C66.6819 10.5285 67.278 10.7262 67.475 10.7262C67.672 10.7262 68.2046 10.8589 68.6583 11.0211C69.1121 11.1831 69.4834 11.2638 69.4834 11.2004C69.4834 11.1368 69.7014 11.2293 69.9678 11.4061C70.2342 11.583 70.7155 11.7746 71.0373 11.8319C71.3588 11.8894 72.2346 12.1697 72.9829 12.4551C73.7314 12.7405 74.4651 12.9268 74.6133 12.8691C74.7929 12.7992 74.8829 12.4028 74.8829 11.6808C74.8829 9.48527 76.7193 8.11429 79.3383 8.3549C79.9984 8.41546 80.5933 8.55319 80.6603 8.66073C80.7275 8.76848 80.9603 8.89061 81.1777 8.93254C81.4269 8.98034 81.7936 9.45752 82.1686 10.2217C82.6733 11.2504 82.7761 11.7282 82.8437 13.3592C82.8877 14.4175 82.9841 15.3496 83.0583 15.4308C83.1325 15.5118 83.5056 15.6214 83.8876 15.6742C84.2694 15.7271 85.0095 15.866 85.5318 15.9827C86.0542 16.0993 86.9093 16.2847 87.4317 16.3949C87.954 16.5048 89.0565 16.7728 89.8814 16.9903C90.7063 17.2078 91.6512 17.4272 91.9812 17.478C92.9437 17.6259 93.7106 17.8294 94.8087 18.2288C95.3739 18.4344 95.883 18.5555 95.94 18.4978C95.997 18.4401 96.3232 18.5391 96.6649 18.7182C97.0065 18.8972 97.6674 19.1247 98.1334 19.2237C98.5993 19.3229 99.4755 19.554 100.08 19.7375C100.685 19.921 101.45 20.1497 101.78 20.2457C102.313 20.4009 105.35 21.463 108.18 22.4835C108.73 22.6818 109.582 23.0462 110.074 23.2931C110.566 23.54 111.376 23.9181 111.874 24.1334C112.372 24.3487 113.004 24.7319 113.279 24.9851C113.554 25.2381 114.228 25.7043 114.776 26.0211C115.324 26.3378 115.949 26.763 116.163 26.9657C116.378 27.1685 116.635 27.3343 116.734 27.3343C116.834 27.3343 117.088 27.5395 117.301 27.79C118.353 29.0316 118.6 30.3412 117.97 31.3391C117.607 31.9153 116.013 33.5448 115.457 33.9089C114.37 34.6215 113.505 35.2333 113.253 35.4687C113.093 35.6177 112.516 35.9774 111.971 36.2681C109.868 37.3889 108.524 38.1894 107.08 39.1826C106.255 39.7499 104.725 40.65 103.68 41.1831C101.51 42.2899 101.032 42.5545 100.652 42.8591C100.502 42.9786 100.147 43.1329 99.861 43.2018C99.5755 43.2706 98.8159 43.6478 98.173 44.0399C97.5302 44.4318 96.8909 44.7526 96.7525 44.7526C96.4824 44.7526 91.2331 47.4061 91.3259 47.4958C91.3563 47.5253 92.4162 47.6078 93.681 47.6789C98.253 47.9363 103.094 48.3922 103.38 48.5921C103.49 48.6691 103.985 48.7566 104.48 48.7865C104.975 48.8165 105.717 48.9585 106.13 49.1023C106.542 49.2459 106.88 49.3006 106.88 49.2234C106.88 49.1465 107.487 49.1562 108.23 49.2451C108.972 49.3342 109.714 49.4223 109.879 49.441C110.044 49.4596 110.347 49.4604 110.552 49.443C110.892 49.4138 110.899 49.3703 110.632 48.9553C110.448 48.6697 110.369 48.1781 110.419 47.6388C110.468 47.1205 110.416 46.778 110.29 46.778C110.174 46.778 110.079 46.6814 110.079 46.5635C110.079 46.4456 110.169 46.4053 110.279 46.4742C110.619 46.6866 110.5 46.3332 110.129 46.028C109.852 45.7997 109.836 45.7163 110.052 45.6268C110.202 45.5646 110.466 45.3471 110.638 45.1435C110.81 44.94 111.04 44.8292 111.149 44.8974C111.266 44.9707 111.295 44.8832 111.219 44.6845C111.004 44.116 111.27 43.7298 111.786 43.861C112.182 43.9617 112.235 43.9163 112.142 43.5558C112.052 43.2058 112.123 43.1323 112.556 43.1323C112.868 43.1323 113.059 43.03 113.029 42.8791C113.002 42.74 113.165 42.626 113.392 42.626C113.619 42.626 113.963 42.4664 114.156 42.2715C114.35 42.0767 114.636 41.9171 114.793 41.9171C114.95 41.9171 115.079 41.8239 115.079 41.7103C115.079 41.5965 115.326 41.4012 115.629 41.2764C117.09 40.6737 118.279 40.046 118.279 39.8767C118.279 39.7736 118.419 39.6892 118.59 39.6892C118.778 39.6892 118.844 39.5944 118.758 39.4522C118.659 39.2899 118.725 39.2586 118.967 39.3527C119.191 39.44 119.646 39.2857 120.21 38.9315C121.742 37.968 124.969 35.8689 125.178 35.6994C125.288 35.61 125.873 35.2708 126.478 34.9451C127.083 34.6196 127.938 34.1212 128.378 33.8378C128.818 33.5545 129.484 33.1522 129.859 32.9438C130.234 32.7356 130.668 32.4365 130.823 32.2789C130.979 32.1215 131.229 31.9927 131.38 31.9927C131.531 31.9927 131.772 31.8254 131.916 31.6211C132.06 31.4167 132.55 31.0007 133.006 30.6967C133.704 30.2314 133.856 30.0066 133.964 29.2775C134.034 28.8009 134.128 28.1915 134.173 27.9233C134.217 27.655 134.4 26.3419 134.579 25.0051C134.964 22.1281 135.234 20.8298 136.179 17.3087C136.918 14.5601 137.573 11.6024 137.751 10.2199C137.808 9.77429 137.96 9.04859 138.087 8.60706C138.215 8.16553 138.347 7.34525 138.38 6.78422C138.414 6.22319 138.58 5.33121 138.749 4.80198C138.925 4.2527 138.974 3.83992 138.862 3.83992C138.754 3.83992 138.805 3.56751 138.976 3.23434C139.146 2.90136 139.283 2.58237 139.281 2.52545C139.278 2.46874 139.277 2.34783 139.277 2.25689C139.277 2.16595 139.638 1.88604 140.079 1.63469C140.521 1.38334 140.83 1.0929 140.767 0.989405C140.704 0.885908 140.874 0.715775 141.145 0.611468C141.416 0.507161 141.687 0.339865 141.748 0.239811C141.91 -0.0242985 143.276 -0.0374632 143.276 0.225229ZM82.9061 21.7139C82.8149 21.9646 82.6843 23.0614 82.6161 24.151C82.5089 25.8619 82.5989 26.8171 83.2741 31.1386C83.7042 33.8921 84.337 38.1499 84.6799 40.6006C85.0229 43.0513 85.3363 45.1581 85.3761 45.2824C85.4197 45.4181 86.3676 45.0536 87.7454 44.371C89.0085 43.7454 90.2534 43.1315 90.5117 43.0069C90.7699 42.8824 91.8812 42.3128 92.9811 41.7413C94.081 41.1699 95.1551 40.7023 95.3681 40.7021C95.5808 40.7018 95.9408 40.5343 96.168 40.3296C96.395 40.1248 96.8957 39.8354 97.2807 39.6865C97.6656 39.5377 98.4364 39.1152 98.9935 38.7476C99.5505 38.3799 100.416 37.8957 100.917 37.6713C101.418 37.4471 101.94 37.1256 102.078 36.9573C102.216 36.7888 102.498 36.6511 102.705 36.6511C102.911 36.6511 103.08 36.5822 103.08 36.498C103.08 36.3422 103.814 35.9853 104.633 35.7431C104.882 35.6696 105.042 35.5381 104.99 35.4514C104.937 35.3648 105.385 35.033 105.986 34.7144C106.588 34.3958 107.08 34.0633 107.08 33.9754C107.08 33.8875 107.21 33.8156 107.37 33.8156C107.529 33.8156 107.732 33.689 107.82 33.5342C107.908 33.3795 108.34 33.0514 108.78 32.8051C110.311 31.9475 111.679 30.7536 111.679 30.2738C111.679 29.7281 110.965 28.7521 110.565 28.7521C110.408 28.7521 110.279 28.6721 110.279 28.5741C110.279 28.4297 109.272 27.8931 108.88 27.8289C108.825 27.82 108.251 27.5683 107.605 27.2697C106.959 26.971 106.291 26.7267 106.121 26.7267C105.951 26.7267 105.662 26.5902 105.48 26.4231C105.298 26.2562 104.616 26.013 103.965 25.8829C103.313 25.7527 102.735 25.5897 102.68 25.5206C102.625 25.4515 101.995 25.2867 101.28 25.154C99.6364 24.849 98.7581 24.6434 96.8703 24.1217C96.0398 23.892 94.9443 23.6647 94.436 23.6167C93.9276 23.5685 93.4011 23.46 93.2655 23.3751C93.1301 23.2903 92.8307 23.1989 92.6003 23.172C92.3698 23.145 91.6412 23.0215 90.9813 22.8973C88.6967 22.468 85.1787 21.8417 84.4308 21.7313C84.0176 21.6704 83.6298 21.5389 83.569 21.4393C83.3747 21.1211 83.0773 21.2442 82.9061 21.7139ZM61.3326 35.4579C59.8444 37.8967 58.0228 45.2863 57.3936 51.4364C57.3308 52.049 57.1915 53.3706 57.0839 54.3732C56.9761 55.3757 56.8891 57.1074 56.8905 58.2214L56.8931 60.2468L57.652 59.0315C59.4098 56.2165 60.8431 51.8433 61.7126 46.6403C62.0544 44.5958 62.1502 43.1609 62.1632 39.8917C62.1732 37.3549 62.0968 35.5507 61.9666 35.254L61.7534 34.7683L61.3326 35.4579ZM151.529 39.993C150.779 42.7357 150.072 49.9684 150.092 54.677C150.107 57.9763 150.128 58.1742 150.402 57.5394C151.9 54.0604 152.509 47.1926 151.895 40.7018L151.751 39.1828L151.529 39.993ZM86.1598 51.8096C86.211 51.9941 86.31 52.6465 86.38 53.2592C86.4972 54.2863 87.5664 62.0915 87.7814 63.4874C88.3766 67.3548 88.8503 70.9641 89.2501 74.675L89.5826 77.761L91.2721 76.0421C92.2014 75.0967 93.0335 74.3232 93.1213 74.3232C93.2093 74.3232 93.2811 74.2322 93.2811 74.1208C93.2811 74.0096 93.6186 73.5632 94.031 73.129C94.7759 72.3448 96.2854 70.5811 96.4851 70.2611C96.5425 70.1691 97.1901 69.4278 97.9238 68.6136C99.6648 66.6816 102.049 63.8758 102.711 62.981C102.999 62.5911 104.271 61.2082 105.539 59.9077C106.806 58.6072 107.791 57.4908 107.728 57.4266C107.665 57.3624 107.753 57.31 107.925 57.31C108.096 57.31 108.83 56.5735 109.556 55.6735C111.144 53.7056 111.099 53.5906 108.677 53.3844C106.237 53.1764 105.893 53.1176 105.58 52.8545C105.426 52.7249 105.048 52.636 104.74 52.6567C104.432 52.6775 104.135 52.6814 104.08 52.6656C104.025 52.6496 103.215 52.5898 102.28 52.5327C101.345 52.4758 100.355 52.384 100.08 52.3291C98.1006 51.933 94.7047 51.6587 90.7237 51.5737C86.4557 51.4823 86.0744 51.5022 86.1598 51.8096ZM134.323 78.779C134.323 79.1689 134.365 79.3283 134.415 79.1334C134.465 78.9386 134.465 78.6194 134.415 78.4245C134.365 78.2297 134.323 78.3891 134.323 78.779ZM135.123 78.9815C135.123 79.3714 135.165 79.5308 135.215 79.336C135.265 79.1411 135.265 78.8219 135.215 78.6271C135.165 78.4323 135.123 78.5916 135.123 78.9815Z" fill="white"/>
</svg>
