<svg width="644" height="378" viewBox="0 0 644 378" fill="none" xmlns="http://www.w3.org/2000/svg">
<path fill-rule="evenodd" clip-rule="evenodd" d="M426.241 -10.3824C426.292 -9.95913 426.669 -10.0728 427.232 -10.6812C427.944 -11.4497 428.217 -11.4987 428.493 -10.908C428.688 -10.4933 429.059 -10.3284 429.32 -10.5415C429.58 -10.7553 430.038 -10.3845 430.336 -9.71774C430.634 -9.05106 431.239 -8.54912 431.68 -8.60271C432.394 -8.68945 433.497 -7.08009 433.889 -5.38162C433.967 -5.04219 434.37 -4.52013 434.783 -4.22141C435.779 -3.50243 436.674 -1.59616 436.051 -1.52052C435.781 -1.48765 435.64 -0.511242 435.738 0.649264C435.836 1.80922 435.479 5.06484 434.944 7.88331C434.409 10.7012 433.729 16.7483 433.433 21.3206C433.137 25.893 432.179 35.2882 431.305 42.1989C429.438 56.9604 428.756 66.522 429.541 66.896C429.85 67.0432 430.075 66.9358 430.042 66.6575C430.009 66.3792 431.118 65.2014 432.507 64.041C433.896 62.8799 435.198 61.5797 435.4 61.1516C435.601 60.723 436.981 59.5465 438.467 58.5361C439.951 57.5258 441.012 56.5017 440.824 56.2612C440.637 56.0201 441.259 55.3753 442.208 54.8286C443.157 54.2812 443.903 53.5865 443.867 53.2845C443.83 52.9819 444.211 52.685 444.713 52.624C445.216 52.5629 445.593 52.2316 445.551 51.8877C445.509 51.5438 445.848 51.2171 446.305 51.1617C446.761 51.1062 448.067 50.091 449.206 48.9057C450.345 47.7205 451.667 46.7033 452.143 46.6454C452.619 46.5876 452.805 46.2795 452.556 45.9608C452.307 45.6421 452.654 45.3144 453.327 45.2326C454 45.1508 454.727 44.6978 454.941 44.225C455.156 43.7529 456.498 42.6699 457.924 41.8183C459.35 40.9668 460.639 40.0425 460.788 39.7648C461.214 38.9727 466.39 35.3973 467.265 35.291C467.698 35.2383 468.762 34.3959 469.631 33.4179C470.501 32.4405 471.49 31.6997 471.832 31.7712C472.173 31.8432 472.899 31.3579 473.444 30.6927C473.989 30.0282 475.607 28.9878 477.039 28.3804C478.471 27.7737 479.617 27.0666 479.586 26.809C479.497 26.08 482.841 24.3438 483.62 24.7148C484.003 24.8967 484.276 24.7188 484.227 24.3193C484.165 23.8098 485.11 23.5928 487.384 23.5931C492.505 23.5938 494.673 23.8144 494.737 24.3409C494.769 24.6091 495.503 24.9222 496.366 25.0361C498.458 25.3117 498.859 28.1428 497.111 30.2927C496.423 31.1397 492.161 34.4054 487.641 37.5502C471.812 48.5643 464.884 53.7776 464.299 55.1157C464.086 55.6028 463.538 56.0463 463.08 56.1019C462.622 56.1576 462.183 56.4368 462.104 56.7224C461.944 57.3066 456.802 61.9405 456.239 62.0089C456.039 62.0332 454.866 63.1345 453.632 64.4557C452.397 65.7769 450.794 67.1334 450.068 67.4703C449.342 67.8072 448.045 68.8569 447.185 69.804C445.064 72.1383 439.906 76.6828 439.292 76.7574C439.019 76.7907 438.73 77.0396 438.649 77.3115C438.569 77.5826 436.998 79.13 435.159 80.7492C428.804 86.344 428.929 86.0407 428.522 96.7826C428.076 108.539 428.295 121.969 429.114 133.192C429.455 137.861 429.709 142.152 429.678 142.727C429.647 143.303 430.953 156.277 432.581 171.559C435.501 198.979 438.331 217.471 440.145 220.994C440.915 222.488 440.972 222.495 442.68 221.304C443.64 220.634 444.893 219.474 445.464 218.725C446.035 217.976 446.959 217.308 447.517 217.24C448.075 217.173 448.367 216.984 448.165 216.822C447.964 216.66 448.52 215.522 449.401 214.293C452.652 209.757 456.997 202.015 456.864 200.994C456.789 200.416 456.095 198.194 455.324 196.058C452.752 188.936 450.507 179.26 448.295 165.755C446.159 152.711 445.91 150.463 445.664 141.966C445.599 139.706 445.498 136.292 445.439 134.38C444.971 119.085 446.088 105.154 448.262 99.1782C450.237 93.7484 455.161 88.0814 459.142 86.656C463.594 85.0625 473.675 84.4934 474.282 85.8014C474.442 86.1461 475.065 86.3679 475.667 86.2948C477.173 86.1118 481.691 90.6929 483.532 94.2701C487.53 102.033 491.78 125.5 491.844 140.16C491.889 150.382 491.581 153.068 488.956 165.315C487.849 170.477 486.852 175.281 486.739 175.993C486.388 178.198 482.041 190.411 480.795 192.693C480.145 193.883 479.645 195.118 479.684 195.438C479.723 195.759 479.297 196.797 478.737 197.745C477.728 199.457 477.732 199.495 479.325 202.841C480.208 204.695 482.012 207.639 483.334 209.384C486.798 213.955 488.329 213.852 491.359 208.844C492.422 207.088 494.279 202.675 495.486 199.039C497.558 192.794 500.986 177.476 500.749 175.521C500.688 175.026 501.032 174.573 501.512 174.515C501.992 174.456 502.49 173.825 502.619 173.111C502.748 172.398 503.33 171.756 503.914 171.685C504.497 171.614 505.421 171.128 505.967 170.604C506.917 169.692 506.87 169.379 504.821 163.107C500.088 148.613 496.964 130.532 497.45 120.446C498.124 106.438 502.381 92.6051 508.973 83.0015C512.745 77.5082 517.539 72.3239 519.014 72.1447C519.317 72.1078 519.664 71.6685 519.784 71.1692C520.096 69.875 523.361 67.809 526.36 67.0068C527.768 66.6307 529.037 66.0629 529.178 65.7449C529.541 64.937 536.468 64.184 539.496 64.6243C542.823 65.1076 546.181 66.233 546.261 66.8913C546.296 67.1814 546.999 67.5084 547.823 67.617C549.902 67.8915 552.68 72.5179 553.19 76.5564C553.781 81.2473 555.377 101.529 555.241 102.637C555.175 103.168 555.293 106.411 555.501 109.843C555.792 114.622 556.081 116.181 556.737 116.504C557.378 116.818 557.326 116.959 556.53 117.063C555.232 117.232 555.238 117.664 556.553 118.722C557.286 119.312 557.453 119.955 557.177 121.116C556.929 122.157 557.036 122.818 557.487 123.032C557.865 123.213 558.096 123.97 558 124.714C557.9 125.49 558.293 126.484 558.918 127.041C559.901 127.915 559.929 128.123 559.194 129.086C558.745 129.676 558.298 131.027 558.203 132.09C558.107 133.151 557.777 134.051 557.468 134.089C557.16 134.126 557.002 134.365 557.118 134.619C557.234 134.873 556.795 135.837 556.142 136.761C555.49 137.684 555.003 138.826 555.06 139.297C555.117 139.768 554.889 140.023 554.553 139.863C554.217 139.703 553.797 139.897 553.619 140.295C553.269 141.077 550.528 142.815 549.762 142.741C549.503 142.716 549.804 146.903 550.429 152.044C551.667 162.232 551.424 164.833 549.238 164.779C547.982 164.747 547.929 164.493 546.728 152.683C545.84 143.946 545.311 140.642 544.809 140.703C544.342 140.759 544.341 142.636 544.805 146.451C545.183 149.566 545.272 152.009 545.001 151.881C544.73 151.752 544.285 149.645 544.012 147.198C543.578 143.306 543.393 142.807 542.533 143.207C541.267 143.797 539.894 142.457 539.828 140.57C539.717 137.377 539.158 135.679 538.256 135.789C537.753 135.85 537.279 135.551 537.2 135.124C537.122 134.698 536.894 133.818 536.692 133.169C536.491 132.52 536.028 126.296 535.664 119.336C534.521 97.473 533.171 79.333 532.658 78.9202C532.387 78.7019 531.47 79.4536 530.62 80.591C529.77 81.7285 528.101 83.912 526.912 85.4428C525.723 86.9735 524.774 88.425 524.803 88.6676C524.833 88.9102 524.561 89.527 524.198 90.0387C521.604 93.6961 518.263 108.261 517.64 118.626C517.359 123.304 519.356 139.753 520.941 145.824C523.818 156.836 528.622 171.033 532.584 180.233C534.735 185.227 541.616 196.766 543.272 198.155C543.722 198.533 544.769 199.548 545.599 200.411L547.107 201.98L549.035 197.773C551.644 192.079 555.078 182.197 558.304 171.102C559.776 166.038 561.542 160.114 562.227 157.937C564.427 150.954 564.786 149.505 566.119 142.237C568.417 129.702 569.267 119.091 568.569 111.638C568.19 107.594 566.417 98.0226 565.353 94.2773C565.137 93.5143 564.655 91.6428 564.284 90.1176C563.913 88.5925 562.791 84.0181 561.791 79.9523C560.791 75.8865 559.612 70.8907 559.172 68.8505C558.731 66.8103 558.148 64.3117 557.876 63.2979C557.018 60.1093 556.002 55.1585 552.556 37.3907C550.714 27.8954 548.732 18.2865 548.15 16.0376C547.229 12.4755 545.515 2.20521 545.462 -0.0660353C545.452 -0.500662 545.832 -0.904098 546.307 -0.96176C546.781 -1.01941 547.235 -1.289 547.316 -1.5602C547.396 -1.83134 548.291 -2.81942 549.304 -3.75532C550.994 -5.31524 551.541 -5.468 555.88 -5.58861C558.483 -5.66131 560.914 -5.52979 561.282 -5.29728C561.65 -5.06477 562.212 -4.92686 562.531 -4.99102C563.961 -5.27765 565.816 -1.91845 567.706 4.38227C573.535 23.812 575.042 28.7583 575.855 31.1269C576.345 32.5551 577.122 35.2479 577.58 37.1114C578.039 38.9749 578.589 41.192 578.802 42.0384C579.015 42.885 580.579 49.8324 582.278 57.4773C583.977 65.1222 585.444 71.468 585.539 71.5795C585.634 71.691 586.284 71.2549 586.983 70.6109C587.682 69.967 588.657 69.3911 589.15 69.3312C590.228 69.2002 598.263 63.9487 598.626 63.1376C598.887 62.5558 611.627 53.9106 612.354 53.8223C612.854 53.7615 620.648 49.1909 622.092 48.1119C625.569 45.5126 637.238 44.5506 640.839 46.5658C641.861 47.1376 643.499 48.8622 644.48 50.3983C646.08 52.9041 646.385 54.1207 647.449 62.2462C649.377 76.9538 649.642 91.5038 648.448 117.005C648.217 121.918 647.81 130.961 647.543 137.1C646.761 155.046 643.759 191.672 642.907 193.667C642.629 194.32 641.563 195.068 640.54 195.329C639.516 195.591 638.133 196.197 637.467 196.675C636.802 197.154 635.697 197.436 635.014 197.302C634.331 197.167 633.805 197.328 633.845 197.658C633.982 198.79 628.753 197.636 628.285 196.432C628.044 195.812 627.545 195.402 627.176 195.521C626.806 195.64 625.848 195.595 625.045 195.42C623.715 195.132 623.588 194.839 623.616 192.139C623.634 190.508 624.04 184.701 624.521 179.234C625.91 163.42 626.79 151.338 627.178 142.747C627.376 138.361 627.699 131.755 627.895 128.068C628.217 122.009 628.877 100.343 628.934 93.9983C628.998 86.6568 628.701 79.0503 628.001 70.1466L627.221 60.2342L622.682 63.0736C620.186 64.6357 617.508 66.4089 616.732 67.014C615.956 67.6191 614.248 68.7789 612.937 69.5917C609.472 71.741 605.317 75.7443 601.793 80.3308C597.532 85.8754 596.721 87.6983 596.126 93.0702C595.523 98.5135 594.62 100.308 591.433 102.392C590.153 103.229 589.004 104.322 588.88 104.821C588.756 105.321 589.353 109.246 590.207 113.543C591.061 117.84 592.688 126.525 593.822 132.843C598.248 157.491 607.451 196.544 609.083 197.606C609.31 197.752 609.534 198.538 609.583 199.351C609.632 200.164 611.409 206.053 613.533 212.439C617.719 225.026 617.735 225.203 615.04 229.141C614.146 230.449 613.999 231.83 614.289 236.25C614.664 241.964 614.055 245.235 612.805 244.229C612.335 243.851 612.123 242.083 612.152 238.763C612.176 235.92 611.9 233.288 611.497 232.505C611.114 231.761 610.962 230.909 611.159 230.609C611.355 230.31 610.801 230.776 609.926 231.645C608.207 233.353 606.117 233.949 605.974 232.772C605.926 232.371 605.728 232.25 605.535 232.503C605.342 232.756 604.778 232.694 604.282 232.366C603.265 231.693 603.497 234.814 605.619 250.269C606.701 258.161 606.711 258.9 605.726 258.821C604.749 258.743 604.492 257.508 602.976 245.614L601.305 232.494L599.782 232.679L598.26 232.864L599.109 238.471C599.575 241.555 600.812 250.766 601.858 258.94C603.568 272.3 603.666 273.923 602.833 275C601.958 276.131 601.845 276.134 600.818 275.061C599.924 274.126 599.693 272.917 599.517 268.24C599.399 265.114 598.56 256.08 597.653 248.165C596.745 240.249 596.021 232.343 596.044 230.595C596.127 224.135 596.068 223.296 595.535 223.361C595.234 223.398 595.099 222.972 595.233 222.416C595.372 221.839 594.97 221.112 594.296 220.723C593.461 220.242 593.307 219.885 593.772 219.505C594.133 219.209 594.285 218.784 594.111 218.56C593.936 218.336 593.464 216.914 593.063 215.4C592.661 213.886 591.907 211.557 591.387 210.225C590.867 208.892 590.284 207.107 590.092 206.258C589.899 205.409 588.269 199.612 586.468 193.375C584.667 187.138 582.404 178.377 581.439 173.905L579.683 165.774L578.615 169.172C578.028 171.041 577.146 173.904 576.656 175.534C571.838 191.559 566.786 203.347 563.095 207.176C559.772 210.624 558.479 211.382 552.695 213.276C545.731 215.555 539.857 215.664 537.07 213.564C536.027 212.779 533.601 211.212 531.679 210.084C529.757 208.955 528.156 207.83 528.121 207.583C528.085 207.337 527.198 206.352 526.15 205.395C525.102 204.438 522.718 201.376 520.852 198.592C518.987 195.807 517.284 193.546 517.069 193.569C516.854 193.59 516.597 194.26 516.498 195.058C516.305 196.611 511.242 209.346 510.306 210.631C509.998 211.056 509.005 212.461 508.101 213.754C504.725 218.583 502.073 220.547 494.794 223.608C489.429 225.864 480.349 226.972 481.107 225.278C481.221 225.024 480.847 224.819 480.276 224.821C477.352 224.832 473.725 223.644 474.103 222.799C474.244 222.484 473.946 222.276 473.44 222.338C472.935 222.399 472.256 222.124 471.933 221.728C470.369 219.808 467.036 217.939 466.262 218.547C465.409 219.215 460.922 224.044 459.262 226.08C458.099 227.505 452.298 231.882 450.907 232.383C450.362 232.579 448.994 233.154 447.868 233.658C446.742 234.163 444.654 234.718 443.228 234.892C440.667 235.203 440.639 235.234 440.904 237.414C441.339 240.991 438.362 241.515 437.572 238.001C437.396 237.213 437.181 236.282 437.095 235.931C437.008 235.579 436.081 235.328 435.035 235.374L433.132 235.455L434.291 241.359C435.036 245.155 435.259 247.568 434.917 248.117C434.624 248.588 434.391 249.828 434.398 250.874C434.408 252.02 433.817 250.531 432.912 247.129C431.738 242.711 431.232 241.579 430.588 241.928C429.985 242.254 429.701 241.853 429.528 240.431C429.277 238.367 428.214 237.861 428.088 239.745C428.047 240.361 428.488 242.713 429.067 244.972C430.026 248.702 430.022 249.25 429.032 250.928L427.942 252.776L426.849 250.764C426.19 249.553 425.18 245.146 424.31 239.687C423.204 232.756 422.442 229.722 421.073 226.798C419.98 224.465 418.664 219.941 417.698 215.195C415.849 206.111 409.329 148.386 408.787 136.296C408.592 131.958 408.306 125.855 408.15 122.733C407.995 119.611 407.937 114.843 408.023 112.137C408.201 106.486 407.758 105.407 406.092 107.438C405.456 108.214 404.768 108.869 404.562 108.894C404.357 108.919 403.877 109.334 403.495 109.817C401.756 112.014 399.878 113.904 399.372 113.966C399.067 114.003 397.764 115.283 396.478 116.811C395.191 118.338 393.618 120.199 392.982 120.947C392.347 121.694 391.406 122.533 390.891 122.812C390.377 123.09 390.008 123.749 390.072 124.276C390.136 124.802 389.847 125.281 389.429 125.339C389.011 125.398 387.171 127.263 385.34 129.484C379.217 136.911 374.774 142.006 373.298 143.292C371.475 144.881 371.238 148.147 372.617 152.673C373.858 156.741 373.898 162.108 372.689 162.255C372.021 162.336 371.681 161.159 371.141 156.891C370.729 153.64 370.017 150.705 369.384 149.65C368.798 148.674 368.34 148.231 368.365 148.664C368.39 149.097 368.022 149.498 367.546 149.556C367.071 149.614 365.891 150.764 364.925 152.112C363.48 154.125 362.86 154.531 361.443 154.387C358.658 154.106 359.531 155.827 362.861 157.186C365.522 158.272 368.153 162.426 367.769 164.937C367.243 168.389 362.918 175.296 353.32 188.017C349.368 193.256 345.222 199.075 344.107 200.95C342.993 202.825 341.827 204.675 341.517 205.062C341.207 205.448 340.271 206.989 339.437 208.487C338.604 209.984 336.619 213.023 335.026 215.241C333.433 217.459 331.662 220.074 331.089 221.054C330.083 222.776 329.266 223.982 325.101 229.897C324.027 231.423 321.396 235.305 319.254 238.522C317.113 241.74 314.629 245.182 313.735 246.172C312.841 247.162 308.827 252.225 304.815 257.423C300.802 262.621 297.006 267.431 296.377 268.11C295.39 269.179 295.336 269.829 295.98 272.917C296.389 274.881 297.884 282.628 299.302 290.133C300.72 297.637 302.171 304.822 302.527 306.1C302.943 307.592 302.933 308.807 302.5 309.5C301.87 310.507 299.65 312.057 298.293 312.436C297.964 312.528 296.964 313.033 296.071 313.559C294.064 314.741 292.725 314.937 292.619 314.065C292.574 313.692 292.232 313.656 291.837 313.982C290.609 314.994 288.142 314.577 285.379 312.892C283.905 311.992 282.656 311.246 282.604 311.232C282.499 311.204 281.28 305.309 279.711 297.239L278.68 291.939L270.738 302.359C266.371 308.089 262.828 313.031 262.865 313.34C262.903 313.65 262.523 313.953 262.02 314.014C261.518 314.075 261.143 314.423 261.187 314.787C261.231 315.151 261.006 315.324 260.686 315.172C260.366 315.02 259.817 315.355 259.465 315.918C259.113 316.48 259.007 316.918 259.228 316.891C259.449 316.864 258.682 318.1 257.523 319.636C256.363 321.173 255.119 322.466 254.757 322.51C254.396 322.554 254.14 322.911 254.188 323.303C254.235 323.695 253.88 324.393 253.398 324.856C252.505 325.713 252.533 327.45 253.609 338.073C253.952 341.452 253.881 342.861 253.383 342.623C252.911 342.398 252.662 341.102 252.663 338.868C252.663 335.61 252.589 335.438 251.009 335.032C249.897 334.747 249.157 333.999 248.753 332.754C248.423 331.734 247.85 330.756 247.48 330.58C247.105 330.401 247.028 330.542 247.307 330.899C247.857 331.604 245.917 333.303 245.211 332.735C244.969 332.541 244.416 332.975 243.983 333.7C243.304 334.834 243.48 336.914 245.235 348.57C246.683 358.188 247.082 362.144 246.61 362.202C246.162 362.256 245.489 358.882 244.542 351.826C243.246 342.181 242.641 338.053 242.126 335.346C241.997 334.667 241.45 334.388 240.567 334.553C238.658 334.91 238.478 335.593 239.337 339.204C239.751 340.948 240.175 343.649 240.278 345.207C240.381 346.764 241.249 354.734 242.206 362.918C243.442 373.488 243.743 377.754 243.244 377.649C242.768 377.548 241.979 373.307 240.794 364.493C239.21 352.704 238.932 351.422 237.833 350.819C236.84 350.272 236.417 348.998 235.497 343.785C234.652 338.991 234.114 337.269 233.322 336.812C232.743 336.479 232.23 335.877 232.181 335.473C232.132 335.071 231.661 334.629 231.135 334.493C230.598 334.353 230.084 333.472 229.964 332.487C229.847 331.521 229.415 330.659 229.005 330.573C228.016 330.363 231.313 324.404 233.024 323.309C234.77 322.19 238.111 318.156 238.006 317.292C237.96 316.91 238.752 315.993 239.767 315.255C241.391 314.073 246.624 307.71 260.498 290.046C262.633 287.328 264.366 285.007 264.352 284.886C264.263 284.156 273.718 271.353 274.408 271.269C274.697 271.234 274.521 268.9 274.018 266.083C272.401 257.022 268.611 238.79 267.49 234.678C266.891 232.482 263.85 221.003 260.732 209.169C257.614 197.335 254.834 186.824 254.553 185.811C254.273 184.798 253.969 183.693 253.879 183.355C253.788 183.017 253.241 188.876 252.664 196.373C249.864 232.753 246.419 250.463 239.278 265.207C236.443 271.058 228.645 280.655 225.945 281.613C225.619 281.729 224.7 282.178 223.903 282.611C219.952 284.756 213.479 286.292 209.546 286.018C207.969 285.908 206.055 285.777 205.293 285.728C204.531 285.678 202.926 285.061 201.727 284.355C200.527 283.65 198.696 282.654 197.658 282.143L195.769 281.213L197.36 292.405C198.729 302.041 198.823 303.612 198.037 303.708C197.268 303.801 196.943 302.379 195.986 294.758C193.985 278.831 194.265 279.789 190.792 276.982C189.108 275.62 187.681 274.173 187.62 273.765C187.559 273.357 187.178 272.865 186.774 272.672C186.246 272.421 186.282 273.793 186.901 277.536C187.423 280.688 187.531 282.844 187.175 282.987C186.823 283.128 186.13 280.533 185.451 276.535C184.36 270.102 182.609 265.634 181.846 267.338C181.429 268.269 181.835 274.216 182.754 280.644C183.595 286.524 183.174 288.871 181.288 288.816C179.948 288.777 179.938 288.725 177.752 271.278C175.665 254.633 175.434 253.428 173.006 246.54C171.601 242.558 170.318 239.193 170.155 239.061C169.655 238.659 169.936 245.264 170.672 251.202C171.055 254.296 172.053 263.882 172.888 272.504C173.844 282.365 175.074 291.486 176.203 297.091C177.469 303.38 177.831 306.22 177.431 306.744C175.827 308.848 175.285 306.246 172.635 283.699C170.957 269.426 169.751 261.072 169.339 260.876C168.565 260.508 166.388 243.242 166.7 239.947C166.818 238.712 166.37 235.34 165.705 232.455C164.458 227.036 163.756 222.279 163.084 214.692C162.869 212.275 162.194 206.966 161.583 202.892C160.425 195.172 160.576 193.906 162.914 191.677C163.5 191.119 163.815 189.937 163.678 188.812C163.291 185.62 163.77 169.583 164.598 158.041C165.356 147.487 166.295 141.4 168.166 134.922C169.432 130.54 174.407 121.003 175.497 120.871C175.718 120.844 176.239 120.424 176.653 119.937C178.94 117.254 183.004 113.93 183.106 114.66C183.146 114.945 183.387 114.725 183.642 114.171C184.255 112.835 194.818 111.064 197.066 111.92C198.472 112.455 198.508 112.429 197.52 111.591C196.929 111.091 195.486 110.66 194.314 110.633C182.121 110.353 181.918 110.336 179.169 109.305C176.732 108.391 172.819 107.52 170.058 107.278C168.976 107.184 167.544 106.618 166.873 106.021C166.203 105.424 165.157 104.997 164.549 105.071C163.941 105.145 162.42 104.769 161.168 104.237C159.917 103.705 157.96 103.128 156.822 102.954C155.683 102.78 154.78 102.308 154.816 101.904C154.852 101.5 154.458 101.222 153.941 101.284C153.132 101.383 153.16 102.375 154.146 108.397C155.678 117.763 156.739 133.818 156.673 146.633C156.605 160.001 156.606 159.872 156.49 162.516C156.436 163.744 156.319 166.471 156.232 168.575C156.051 172.95 154.224 194.212 153.532 199.991C152.912 205.181 150.716 217.977 149.751 222.022C149.322 223.819 148.329 228.222 147.544 231.807C146.758 235.392 145.041 242.167 143.728 246.863C140.686 257.744 140.485 258.442 138.854 263.837C138.107 266.308 137.528 268.594 137.567 268.918C137.607 269.243 137.429 270.03 137.171 270.668C136.914 271.305 136.046 274.332 135.243 277.396C133.337 284.667 125.417 307.326 122.39 314.17C115.134 330.576 114.603 331.376 109.404 333.748C106.935 334.874 104.6 335.509 102.895 335.517C99.9062 335.531 96.0862 334.433 95.9763 333.529C95.9365 333.201 95.4928 332.983 94.9903 333.044C93.8941 333.177 93.6469 331.525 93.4981 323.074C93.1542 303.477 92.2742 291.583 89.1678 264.511C85.7571 234.793 83.105 216.54 77.4027 183.548C75.2956 171.356 69.6928 148.057 65.0251 132.075C57.9279 107.775 51.9779 96.0007 42.417 87.3362C39.082 84.3142 37.9448 83.6689 35.4194 83.3629C30.6591 82.7867 28.5702 84.4503 25.546 91.2283C22.4037 98.27 20.8415 106.515 20.3836 118.467C20.0604 126.905 20.6133 132.812 22.467 140.737C23.1414 143.621 24.0549 147.65 24.4963 149.69C25.664 155.082 29.1306 166.2 31.1668 171.085C37.0962 185.308 38.3213 188 42.6611 196.335C49.1795 208.855 57.8072 223.022 62.7094 229.256C63.6431 230.445 64.4359 231.649 64.4703 231.932C64.5828 232.858 71.7895 243.45 74.8847 247.239C76.5453 249.272 77.9497 251.308 78.0051 251.764C78.0605 252.22 79.3269 254.091 80.819 255.924C84.2005 260.075 86.2074 263.392 86.7716 265.761C87.2574 267.801 86.7163 271.307 85.7873 272.135C85.4276 272.456 85.4299 272.653 85.793 272.62C86.1293 272.59 86.0572 272.856 85.6332 273.212C85.2091 273.567 84.9513 274.593 85.0605 275.492C85.2386 276.957 85.0276 277.154 83.0251 277.398C81.0457 277.638 80.7522 277.903 80.4487 279.719C80.007 282.365 78.5852 283.588 76.8967 282.774C75.7893 282.24 75.6458 282.387 75.6095 284.092C75.5875 285.147 76.1791 287.986 76.9242 290.399C79.282 298.038 80.7318 304.953 80.33 306.641C80.0301 307.901 79.5172 308.278 77.8179 308.484C76.0389 308.7 75.5858 308.486 75.101 307.202C74.7817 306.355 74.7041 304.404 74.929 302.867C75.2662 300.562 75.0268 299.015 73.5594 294.018C72.5817 290.688 71.5321 286.852 71.2273 285.493C70.4578 282.06 70.0945 281.507 68.7168 281.674C67.2667 281.85 66.2504 280.744 67.1705 279.991C67.655 279.593 67.562 279.271 66.8207 278.781C66.2648 278.412 65.5732 278.305 65.2832 278.543C64.9938 278.781 64.5001 278.294 64.1864 277.462C63.8722 276.63 63.3417 275.983 63.0067 276.024C62.6614 276.066 62.6449 276.754 62.9695 277.614C63.3222 278.549 63.2825 279.162 62.8665 279.213C62.4883 279.259 62.0618 278.226 61.8959 276.861C61.703 275.274 61.267 274.341 60.6428 274.178C60.1163 274.041 59.6161 273.358 59.5311 272.659C59.4446 271.947 58.9754 271.438 58.4632 271.5C57.9608 271.561 57.5563 271.396 57.5645 271.134C57.6125 269.621 57.004 268.352 55.7429 267.337C54.9578 266.705 54.4534 266.008 54.6218 265.787C54.7903 265.566 54.6529 265.107 54.3167 264.766C53.9806 264.426 52.8373 262.184 51.776 259.783C50.7153 257.381 49.6111 255.446 49.3231 255.481C49.0344 255.516 48.7442 255.096 48.6777 254.549C48.5708 253.67 41.337 238.512 39.5459 235.415C37.8158 232.423 32.4249 221.41 28.4073 212.66C25.9797 207.371 22.8301 200.759 21.4085 197.966C14.0497 183.504 7.31698 166.195 4.79727 155.256C4.40622 153.559 3.67808 150.507 3.17946 148.474C2.68023 146.441 1.68793 139.852 0.973053 133.832C-0.0939036 124.839 -0.21742 121.743 0.283145 116.469C1.77843 100.706 4.70283 91.5807 11.2254 82.3232C12.227 80.9022 12.8832 79.6093 12.6851 79.4494C12.4865 79.2896 12.9015 79.0888 13.6074 79.003C14.3139 78.9171 15.0346 78.5263 15.2101 78.1344C15.5441 77.389 16.2665 76.9459 22.2634 73.8036C25.3813 72.1704 26.8963 71.7903 32.4593 71.2468C36.0531 70.8951 39.4229 70.7082 39.9476 70.8304C45.4077 72.1044 52.9055 74.8438 55.6456 76.5658C59.773 79.1604 61.5232 80.5427 61.6125 81.2779C61.6565 81.6399 61.9097 82.0044 62.1746 82.089C62.4401 82.1728 63.6322 83.4079 64.8239 84.8333C66.0163 86.2587 67.1599 87.5472 67.3653 87.6967C67.5714 87.8461 69.3269 90.4878 71.2672 93.567C79.2483 106.233 85.949 126.875 95.2418 167.422C95.5925 168.95 96.3324 172.714 96.8863 175.787C97.4409 178.86 98.2608 183.329 98.708 185.717C99.1559 188.105 100.306 195.246 101.265 201.585C102.223 207.924 103.326 214.642 103.715 216.514C104.105 218.386 106.279 234.962 108.545 253.349C112.303 283.824 112.731 286.609 113.381 284.834C114.176 282.662 121.352 256.964 125.133 242.746C128.222 231.134 132.356 210.325 133.329 201.495C136.881 169.27 137.359 145.698 134.939 122.31C133.676 110.097 133.15 106.919 131.497 101.474C128.596 91.9249 127.856 90.6609 123.538 87.8744C113.053 81.107 110.764 79.0803 110.468 76.3044C110.271 74.4611 113.616 70.3722 116.936 68.3966C121.118 65.9083 126.838 65.5456 130.868 67.513C132.385 68.2531 133.799 68.8374 134.012 68.8115C135.104 68.6789 140.162 74.0915 143.003 78.431C145.176 81.7516 146.751 83.518 147.832 83.8467C148.715 84.1156 150.316 84.9025 151.391 85.5966C153.304 86.831 157.812 88.3553 158.601 88.0342C158.82 87.9454 159.196 88.0951 159.437 88.3666C159.678 88.6386 161.104 89.2469 162.606 89.7179C164.108 90.1895 165.36 90.7434 165.389 90.9487C165.418 91.1539 166.524 91.6755 167.847 92.1073C172.325 93.5692 176.617 94.8717 177.277 94.9691C179.584 95.3092 180.792 95.6935 180.842 96.1037C180.897 96.5613 181.734 96.7165 190.326 97.8644C197.295 98.7953 199.944 98.9554 202.623 98.6084C204.045 98.4235 205.24 98.5264 205.277 98.8359C205.315 99.146 205.823 99.3278 206.408 99.2403C210.304 98.6551 217.893 98.8374 221.021 99.5917C225.126 100.581 227.393 102.521 226.365 104.165C225.75 105.148 222.015 107.858 220.928 108.11C220.597 108.186 219.81 108.57 219.178 108.962C218.545 109.353 213.71 110.161 208.432 110.754C203.154 111.348 198.979 112.017 199.153 112.24C199.327 112.463 200.831 113.166 202.496 113.802C207.788 115.823 211.265 120.74 213.393 129.214C215.541 137.769 216.236 159.136 214.792 172.244C213.187 186.816 208.399 201.991 202.606 210.861C198.851 216.61 195.457 220.591 194.177 220.747C193.819 220.79 193.561 221.107 193.603 221.451C193.644 221.795 193.466 222.037 193.204 221.988C192.943 221.94 191.666 222.502 190.365 223.239L188 224.579L189.562 230.937C193.631 247.501 199.195 259.924 205.549 266.631C208.519 269.766 212.952 272.991 214.124 272.868C217.153 272.553 223.098 259.591 226.441 246.011C230.754 228.494 234.315 183.787 234.172 148.952C234.106 132.86 231.471 98.8508 229.813 92.6983C228.823 89.0271 227.852 84.9387 226.372 78.2068L225.421 73.8813L219.199 73.5411C215.777 73.3542 212 73.1643 210.804 73.1192C209.609 73.0747 206.565 72.8186 204.038 72.5508C200.203 72.1451 199.378 72.2144 199.038 72.9738C198.707 73.7132 198.438 73.7554 197.601 73.2018C197.034 72.8265 196.324 72.7218 196.023 72.9684C195.722 73.2157 195.258 73.1394 194.993 72.8005C194.654 72.3658 194.299 72.4134 193.794 72.962C193.272 73.5293 192.987 73.548 192.746 73.0291C192.493 72.485 192.109 72.5382 191.111 73.2558C189.905 74.1224 189.825 74.0865 190.06 72.782C190.268 71.6357 190.11 71.4424 189.222 71.7565C188.62 71.9698 188.219 72.4316 188.329 72.7824C188.441 73.1336 187.72 73.4896 186.728 73.574C184.753 73.7417 184.508 73.472 185.477 72.2008C186.272 71.1576 185.557 71.2064 184.037 72.2997C183.167 72.925 182.62 72.9382 181.767 72.3548C180.391 71.4129 178.192 70.8478 178.767 71.5837C179.667 72.7369 178.073 72.8818 176.347 71.8041C175.343 71.1769 173.79 70.6842 172.896 70.7091C170.384 70.7783 170.342 70.7708 170.358 70.2632C170.401 68.9047 169.953 68.3285 169.178 68.7482C168.502 69.1139 168.309 68.7871 168.297 67.2488C168.288 66.1668 168.063 65.3079 167.795 65.3404C166.308 65.5212 165.131 63.4538 164.699 59.9019C164.306 56.6627 164.406 56.0706 165.42 55.6619C166.068 55.4004 166.568 54.938 166.531 54.6341C166.382 53.4081 166.471 53.0839 167.28 51.9057C167.933 50.9547 168.255 50.8438 168.712 51.4145C169.082 51.8771 169.212 51.3949 169.063 50.1181C168.933 49.0003 169.1 48.0518 169.435 48.011C169.77 47.9703 170.078 48.2184 170.12 48.5622C170.233 49.4976 171.906 49.1103 172.344 48.047C172.554 47.5374 173.887 46.8101 175.307 46.4308C176.726 46.0514 178.125 45.5471 178.415 45.3094C178.705 45.0718 178.981 45.1918 179.027 45.5764C179.074 45.9609 179.348 46.0824 179.636 45.8469C179.923 45.6108 180.397 45.7227 180.687 46.0947C181.059 46.5705 181.417 46.4 181.896 45.5196C182.505 44.4 182.59 44.3795 182.705 45.3255C182.776 45.9069 183.18 46.3735 183.604 46.3621C184.028 46.3512 184.656 46.3738 185 46.4131C185.345 46.4524 186.366 46.4381 187.27 46.3815C188.174 46.3244 189.453 46.7127 190.112 47.2429C190.771 47.7737 191.47 48.2116 191.665 48.2165C191.86 48.2214 193.418 48.6741 195.127 49.2232C196.837 49.7717 198.726 50.1613 199.326 50.0884C199.926 50.0155 201.598 50.2279 203.041 50.5608C204.483 50.893 205.645 51.0044 205.621 50.8087C205.597 50.6124 206.296 50.8174 207.173 51.2646C208.051 51.7119 209.589 52.1252 210.59 52.183C211.591 52.2416 214.363 52.7827 216.749 53.3867C219.136 53.9906 221.44 54.2942 221.87 54.0612C222.391 53.779 222.516 52.5222 222.245 50.2933C221.422 43.5159 226.5 38.6042 234.566 38.3776C236.6 38.3202 238.463 38.5252 238.708 38.8324C238.953 39.1401 239.707 39.431 240.385 39.4799C241.162 39.5352 242.458 40.8725 243.887 43.0927C245.81 46.0813 246.302 47.5182 247.12 52.528C247.651 55.7785 248.294 58.6201 248.55 58.8433C248.807 59.0659 249.984 59.2661 251.167 59.2879C252.35 59.3098 254.656 59.4647 256.291 59.6315C257.925 59.7983 260.599 60.0539 262.231 60.2007C263.863 60.3469 267.322 60.766 269.915 61.1321C272.509 61.4983 275.469 61.8257 276.493 61.8605C279.48 61.9607 281.892 62.3052 285.386 63.1317C287.185 63.5571 288.781 63.7425 288.933 63.5432C289.084 63.344 290.115 63.529 291.223 63.9552C292.33 64.3814 294.429 64.8389 295.885 64.9722C297.341 65.1061 300.096 65.4952 302.007 65.8378C303.918 66.1803 306.334 66.6031 307.375 66.7773C309.054 67.0592 318.703 69.2137 327.704 71.3168C329.453 71.7253 332.186 72.5346 333.777 73.1146C335.368 73.6946 337.977 74.5621 339.574 75.0424C341.171 75.5228 343.24 76.4717 344.173 77.1514C345.105 77.8306 347.331 79.0205 349.12 79.7954C350.908 80.5704 352.97 81.6516 353.7 82.1979C354.431 82.7442 355.276 83.1611 355.577 83.1245C355.879 83.0878 356.732 83.6268 357.473 84.3216C361.142 87.7649 362.386 91.7161 360.843 95.0295C359.952 96.9428 355.711 102.562 354.155 103.892C351.109 106.494 348.704 108.703 348.025 109.523C347.595 110.042 345.974 111.366 344.422 112.465C338.436 116.704 334.646 119.672 330.619 123.272C328.319 125.329 323.998 128.674 321.015 130.706C314.822 134.926 313.465 135.919 312.421 137C312.011 137.425 310.986 138.033 310.142 138.351C309.298 138.669 307.126 140.114 305.315 141.563C303.505 143.01 301.678 144.237 301.256 144.289C300.434 144.389 285.442 154.522 285.759 154.765C285.862 154.845 289.121 154.707 293 154.459C307.02 153.561 321.936 153.177 322.881 153.688C323.245 153.885 324.785 153.972 326.304 153.881C327.823 153.79 330.137 153.954 331.447 154.245C332.757 154.536 333.805 154.58 333.776 154.341C333.747 154.104 335.601 153.909 337.895 153.909C340.19 153.909 342.484 153.906 342.994 153.903C343.503 153.899 344.425 153.79 345.044 153.66C346.068 153.444 346.073 153.307 345.104 152.125C344.437 151.311 344.011 149.823 343.962 148.14C343.915 146.522 343.629 145.484 343.244 145.531C342.892 145.573 342.567 145.31 342.523 144.946C342.479 144.582 342.738 144.425 343.099 144.597C344.212 145.127 343.718 144.08 342.475 143.275C341.545 142.673 341.464 142.421 342.089 142.065C342.522 141.817 343.243 141.048 343.691 140.356C344.139 139.664 344.798 139.237 345.155 139.407C345.539 139.59 345.595 139.31 345.29 138.724C344.421 137.049 345.086 135.758 346.707 135.972C347.951 136.137 348.095 135.977 347.676 134.898C347.27 133.851 347.461 133.598 348.778 133.438C349.728 133.322 350.272 132.936 350.124 132.481C349.989 132.062 350.443 131.649 351.135 131.565C351.827 131.481 352.814 130.861 353.33 130.188C353.845 129.515 354.658 128.917 355.136 128.859C355.614 128.8 355.971 128.465 355.929 128.114C355.886 127.763 356.566 127.069 357.441 126.572C361.665 124.17 365.049 121.793 364.985 121.27C364.947 120.952 365.343 120.639 365.865 120.576C366.435 120.506 366.602 120.189 366.285 119.782C365.922 119.318 366.112 119.197 366.885 119.398C367.601 119.584 368.93 118.939 370.512 117.637C374.819 114.096 383.857 106.422 384.43 105.821C384.732 105.505 386.386 104.241 388.106 103.012C389.826 101.783 392.243 99.9283 393.477 98.8908C394.71 97.8533 396.59 96.3649 397.653 95.5828C398.717 94.8013 399.926 93.7173 400.34 93.1733C400.755 92.63 401.469 92.1396 401.929 92.0838C402.388 92.0279 403.06 91.4223 403.421 90.7383C403.782 90.0542 405.121 88.5884 406.395 87.4812C408.346 85.7868 408.724 85.0366 408.779 82.7459C408.815 81.2486 408.873 79.3326 408.907 78.4884C408.942 77.6434 409.006 73.5226 409.05 69.3299C409.142 60.3063 409.477 56.1987 411.036 44.9793C412.254 36.2212 413.141 26.8485 413.164 22.515C413.171 21.1183 413.359 18.8222 413.582 17.4121C413.805 16.0019 413.899 13.4209 413.791 11.6767C413.683 9.93238 413.854 7.11742 414.171 5.42103C414.501 3.66039 414.493 2.36828 414.153 2.40966C413.826 2.4494 413.879 1.58962 414.272 0.498149C414.665 -0.592619 414.963 -1.62811 414.935 -1.80298C414.907 -1.97723 414.856 -2.34982 414.822 -2.63054C414.788 -2.91127 415.783 -3.90906 417.033 -4.84831C418.284 -5.78762 419.118 -6.79876 418.886 -7.09486C418.655 -7.39095 419.109 -7.97906 419.895 -8.40134C420.681 -8.82354 421.445 -9.44048 421.594 -9.77198C421.986 -10.6469 426.142 -11.1933 426.241 -10.3824ZM250.444 78.2951C250.26 79.1029 250.274 82.5368 250.475 85.9257C250.791 91.2465 251.423 94.1617 255.1 107.252C257.443 115.593 260.968 128.502 262.931 135.94C264.895 143.378 266.64 149.766 266.808 150.135C266.992 150.538 269.742 149.061 273.682 146.444C277.294 144.046 280.855 141.69 281.595 141.21C282.335 140.73 285.506 138.56 288.641 136.389C291.776 134.218 294.872 132.377 295.521 132.297C296.168 132.218 297.202 131.568 297.817 130.852C298.431 130.135 299.848 129.057 300.964 128.455C302.081 127.853 304.27 126.263 305.829 124.922C307.387 123.581 309.841 121.766 311.283 120.888C312.724 120.01 314.194 118.825 314.552 118.254C314.909 117.683 315.716 117.153 316.344 117.077C316.973 117.001 317.462 116.726 317.431 116.465C317.372 115.985 319.474 114.611 321.877 113.561C322.607 113.241 323.046 112.776 322.853 112.528C322.659 112.28 323.901 111.09 325.613 109.884C327.325 108.678 328.698 107.469 328.665 107.198C328.632 106.927 329.003 106.656 329.488 106.597C329.974 106.538 330.543 106.073 330.753 105.562C330.963 105.052 332.155 103.879 333.403 102.956C337.746 99.7423 341.464 95.5504 341.284 94.0692C341.08 92.3849 338.537 89.6365 337.319 89.7845C336.841 89.8426 336.42 89.6431 336.384 89.3405C336.329 88.8947 333.059 87.6115 331.841 87.5585C331.67 87.5513 329.829 86.9864 327.749 86.304C325.669 85.621 323.543 85.1142 323.025 85.1772C322.507 85.2401 321.578 84.9254 320.96 84.477C320.343 84.0293 318.175 83.5308 316.142 83.3705C314.109 83.2096 312.288 82.9202 312.094 82.7274C311.901 82.5345 309.921 82.2587 307.693 82.1138C302.573 81.7807 299.821 81.4711 293.876 80.5593C291.26 80.1577 287.839 79.8617 286.272 79.9016C284.706 79.941 283.062 79.8007 282.617 79.589C282.173 79.3771 281.227 79.2059 280.515 79.208C279.803 79.2102 277.538 79.0985 275.481 78.9595C268.362 78.4796 257.413 77.8485 255.094 77.7846C253.813 77.7493 252.583 77.4871 252.36 77.202C251.649 76.2917 250.789 76.7819 250.444 78.2951ZM189.898 128.706C186.28 136.785 183.504 160.271 183.896 179.488C183.934 181.403 184.005 185.534 184.054 188.669C184.102 191.803 184.486 197.181 184.909 200.619L185.676 206.87L187.532 202.838C191.829 193.498 194.554 179.468 195.25 163.085C195.524 156.647 195.277 152.182 194.09 142.086C193.169 134.251 192.26 128.71 191.752 127.842L190.92 126.422L189.898 128.706ZM466.295 109.322C465.04 118.067 465.598 140.655 467.427 155.182C468.71 165.362 468.849 165.965 469.443 163.904C472.702 152.61 471.981 131.184 467.673 111.375L466.666 106.739L466.295 109.322ZM271.643 169.994C271.869 170.544 272.415 172.521 272.858 174.387C273.6 177.514 279.785 201.212 280.963 205.442C284.226 217.16 287.023 228.126 289.633 239.433L291.803 248.836L296.304 242.905C298.779 239.642 301.023 236.947 301.291 236.914C301.559 236.882 301.743 236.574 301.701 236.231C301.66 235.887 302.52 234.384 303.613 232.891C305.588 230.195 309.523 224.192 310.012 223.13C310.152 222.825 311.846 220.297 313.775 217.512C318.353 210.904 324.562 201.36 326.24 198.353C326.971 197.043 330.329 192.303 333.701 187.819C337.073 183.336 339.654 179.525 339.438 179.35C339.221 179.175 339.47 178.981 339.992 178.917C340.514 178.854 342.474 176.309 344.347 173.262C348.443 166.599 348.265 166.261 340.811 166.521C333.302 166.782 332.233 166.728 331.182 166.031C330.663 165.688 329.478 165.554 328.547 165.731C327.617 165.91 326.714 166.032 326.541 166.003C326.368 165.974 323.878 166.09 321.01 166.259C318.141 166.43 315.092 166.513 314.234 166.445C308.056 165.955 297.611 166.365 285.455 167.576C272.422 168.874 271.268 169.076 271.643 169.994ZM428.444 235.419C428.59 236.623 428.776 237.1 428.856 236.48C428.936 235.86 428.816 234.874 428.59 234.292C428.364 233.709 428.298 234.216 428.444 235.419ZM430.956 235.749C431.103 236.952 431.288 237.429 431.368 236.809C431.448 236.189 431.328 235.203 431.102 234.621C430.876 234.038 430.81 234.545 430.956 235.749Z" fill="white"/>
</svg>
