<svg width="1283" height="771" viewBox="0 0 1283 771" fill="none" xmlns="http://www.w3.org/2000/svg">
<path opacity="0.15" d="M73.5299 158.574C71.2191 159.507 68.8396 160.2 66.688 160.415C53.3588 161.888 67.0832 154.878 54.2322 150.612C42.0631 146.924 63.2526 136.974 48.0127 138.759C47.076 138.872 47.2622 137.625 45.6649 137.587C45.6397 137.587 45.6142 137.586 45.5882 137.586C36.5712 137.475 51.7339 130.695 28.642 132.869C26.7497 133.048 17.6703 135.533 17.3761 134.83C16.9161 133.797 13.3827 133.052 12.9325 131.997C12.9409 131.994 12.9493 131.992 12.9577 131.989C12.116 130.072 3.85196 111.531 1.75173 104.305C1.75162 104.305 1.75154 104.305 1.75138 104.304C1.33994 102.901 1.15794 101.928 1.30074 101.589C1.97246 100.014 -0.348658 94.7308 0.0453613 94.3084C0.397461 93.953 3.66948 93.5974 4.77254 92.883C6.36827 91.8526 6.82283 89.6446 8.13077 89.0304C10.3818 87.9804 14.7462 87.1583 16.7668 86.0637C18.4621 85.1665 19.2784 81.1145 20.9674 80.1554C21.2172 80.0137 21.5639 79.8388 21.9932 79.6343C25.4677 77.9393 37.1415 73.3047 40.9826 72.0101C54.4375 67.3503 68.6186 63.2685 82.9545 57.1915C86.9346 55.5076 90.8385 53.8945 94.9206 52.2301C105.115 48.0656 115.538 43.9222 124.962 39.8444C153.851 27.3436 190.818 17.6914 217.023 6.94694C228.527 2.28418 266.151 -12.22 326.088 -33.5944C359.642 -45.3941 400.014 -59.612 448.674 -73.0466C450.617 -73.0781 454.574 -73.9669 459.21 -75.8616C465.867 -77.6081 472.673 -79.318 479.562 -80.9687C484.349 -82.1157 489.211 -83.2448 494.155 -84.3481C492.84 -83.7689 492.546 -83.4515 493.804 -83.5805C495.433 -83.7568 500.926 -85.4059 504.844 -85.9543C508.084 -86.4197 513.305 -86.0339 516.187 -87.122C517.446 -87.6016 514.268 -87.8223 515.879 -88.7192C516.035 -88.8116 516.327 -88.9306 516.71 -89.0665C520.359 -89.7787 524.073 -90.4733 527.833 -91.1291C528.155 -90.9367 529.164 -90.853 531.048 -90.9117C534.668 -91.0144 542.844 -92.9192 548.617 -94.3944C557.38 -95.5857 566.482 -96.5936 576.203 -97.1658C584.696 -97.5316 592.864 -98.1662 606.511 -96.0543C610.062 -95.4197 614.023 -94.6231 619.516 -92.5818C624.851 -90.3489 632.675 -87.597 642.034 -76.7889C652.026 -66.0938 655.137 -45.2291 652.257 -35.3508C649.899 -24.7411 646.494 -19.6582 643.847 -15.3901C638.694 -8.20974 633.663 -3.57693 629.526 0.203103C624.744 4.44047 620.727 8.38049 621.399 8.67883C584.508 43.0495 542.711 77.8137 505.192 114.098C506.896 111.803 507.923 110.222 507.554 110.1C497.763 119.159 500.05 119.941 492.182 125.852C489.281 128.046 487.489 130.077 486.653 131.615C485.803 133.136 485.732 134.585 486.905 134.036C487.059 133.858 487.234 133.63 487.432 133.341C487.962 131.562 490.091 129.793 490.746 118.283C490.965 112.582 489.233 102.595 483.67 94.5729C478.18 86.5062 471.861 82.706 467.961 80.7367C460.012 77.0944 458 77.5441 456.441 77.1946C455.033 77.0411 454.749 77.0731 454.727 77.0645C455.05 77.092 458.784 76.8298 462.216 76.4143C469.384 75.5785 477.686 74.3464 486.026 73.0947C502.352 70.6245 519.322 67.9817 536.449 65.4596C532.732 66.5983 530.242 67.7455 535.268 67.0054C535.826 66.9224 541.842 65.1279 544.492 64.2768C595.641 56.8143 648.867 50.265 703.541 44.7351C703.178 44.9315 703.327 45.064 704.176 45.077C706.212 45.1116 711.028 44.7192 716.512 44.1304C722.428 43.4925 729.062 42.6255 732.869 41.8625C768.657 38.4836 804.912 35.4401 841.768 32.6404C852.118 32.5934 861.627 32.8731 862.557 32.6711C863.671 32.4308 861.98 31.7563 862.631 31.0837C866.822 30.7797 871.017 30.4792 875.209 30.1827C872.921 30.9817 869.698 31.5428 869.703 31.6161C869.889 33.0732 877.724 30.6521 880.445 30.316C886.653 29.5504 892.198 29.2832 892.748 28.9642C952.171 24.9388 1012.65 21.2954 1075.11 19.5017C1098.2 18.9011 1121.35 18.4283 1145.5 18.7457C1157.67 18.9368 1169.89 19.2765 1183.3 20.4378C1197.12 22.3529 1210.09 21.1717 1235.16 34.072C1242.12 38.1801 1249.1 42.2431 1258.14 49.6063C1262.7 53.6549 1268.04 57.5127 1275.08 69.0764C1278.41 74.9162 1282.66 84.3278 1282.38 97.1913C1282.21 110.111 1276.16 121.966 1270.97 128.254C1201.62 197.197 1142.24 227.92 1076.14 273.535C1034.69 300.804 991.919 326.899 948.944 351.636C946.847 352.464 944.89 353.264 944.606 353.427C944.321 353.591 942.646 354.879 940.879 356.271C917.669 369.568 894.327 382.599 871.017 395.409C767.893 451.967 664.375 505.866 564.72 559.944C523.637 582.591 477.245 607.311 447.518 628.888C447.172 629.163 446.987 629.322 447.124 629.205C447.194 629.144 447.351 629.008 447.665 628.713C447.971 628.421 448.415 628 449.173 627.173C450.339 625.144 454.045 624.351 458.491 608.964C460.787 600.994 459.24 585.792 452.983 576.741C450.366 572.566 447.38 569.404 444.706 567.107C442.33 565.083 440.613 563.96 438.893 562.925C435.244 560.822 433.917 560.422 432.3 559.799C430.693 559.23 430.069 559.078 429.339 558.884C428.654 558.71 428.197 558.617 427.929 558.565C427.638 558.508 427.445 558.477 427.334 558.46C427.139 558.431 427.194 558.443 427.404 558.464C427.59 558.484 427.891 558.512 428.3 558.542C431.589 558.786 437.336 558.85 442.733 558.81C453.773 558.725 465.692 558.344 477.285 557.934C500.767 557.082 524.159 556.019 547.74 554.943C744.401 545.72 928.372 536.269 1086.93 527.24C1115.16 525.618 1142.35 523.887 1169.33 522.502C1183.49 521.908 1195.17 520.949 1213.4 521.701C1215.75 521.847 1218.57 522.046 1222.28 522.61C1223.32 522.771 1224.41 522.96 1225.56 523.196C1226.15 523.316 1226.71 523.438 1227.38 523.595C1228.18 523.782 1229.01 523.993 1229.88 524.241C1231.73 524.775 1233.29 525.245 1236.1 526.405C1239.2 527.755 1242.42 529.232 1247.2 532.89C1252.82 537.458 1259.59 544.004 1263.36 557.276C1266.72 570.463 1263.88 580.304 1261.42 586.48C1256.3 597.855 1252.61 600.269 1250.39 602.836C1245.43 607.639 1243.13 609.04 1240.69 610.807C1231.94 616.73 1226.53 619.49 1220.64 622.809C1113.52 680.377 1023.18 718.376 956.909 745.43C895.896 769.953 856.476 784.216 844.133 788.948C765.688 818.566 686.482 846.05 608.791 874.146C552.502 894.828 496.408 914.962 446.173 940.299C387.546 970.022 328.928 999.668 280.373 1035.38C278.867 1036.5 277.369 1037.62 275.9 1038.73C268.924 1044 262.163 1049.36 257.04 1054.03C254.56 1056.27 252.358 1058.63 252.133 1058.97C252.062 1058.96 252.563 1058.88 254.501 1054.78C255.387 1052.66 256.951 1049.25 257.514 1042.36C258.237 1035.79 256.098 1023.78 250.038 1015.56C254.715 1025.26 281.29 1035.15 314.201 1038.18C375.24 1044.43 439.196 1048.56 501.084 1052.2C533.798 1054.07 566.169 1055.68 597.886 1057C609.21 1057.48 659.198 1058.89 668.158 1060.26C670.12 1060.57 672.718 1064.65 676.855 1065.73C701.066 1072.1 702.606 1101.81 725.56 1108C737.392 1111.18 721.057 1113.28 731.931 1116.37C734.432 1117.09 747.555 1121.6 748.096 1121.97C750.98 1123.94 745.374 1124.64 744.133 1125.75C742.44 1127.27 741.951 1130.25 736.403 1131.33C735.023 1131.6 731.643 1130.81 731.068 1131.02C729.839 1131.47 737.96 1133.56 736.731 1134.02C736.102 1134.24 730.079 1133.38 729.609 1133.61C729.141 1133.83 732.193 1136.18 731.726 1136.4C731.258 1136.62 741.17 1136.41 740.703 1136.63C740.263 1136.84 742.525 1138.02 742.297 1138.73C742.008 1139.55 738.317 1141.87 738.334 1142.51C738.389 1143.9 747.489 1146.69 745.59 1147.61C743.719 1148.5 734.402 1145.27 733.848 1145.6C732.635 1146.33 744.278 1154.6 735.877 1155.06C731.582 1155.31 729.251 1153.47 727.71 1153.26C723.328 1152.67 707 1151.78 702.766 1151.84C635.701 1152.71 649.855 1143.27 567.55 1138.71C544.211 1137.4 520.258 1136.02 495.832 1134.57C435.088 1130.84 371.803 1127.25 305.467 1120.89C268.052 1115.95 216.939 1111.46 181.372 1063.49C174.784 1054.54 173.041 1041.83 174.158 1034.5C175.137 1026.84 177.18 1022.4 178.888 1018.78C182.406 1011.83 185.455 1008.18 188.222 1004.8C193.752 998.284 198.575 993.875 203.332 989.629C212.801 981.305 221.856 974.442 230.813 967.79C288.787 925.495 349.856 895.262 408.653 865.174C467.16 835.732 525.135 815.24 580.25 794.766C618.996 780.616 656.576 767.299 692.44 754.392C719.517 744.335 803.156 716.075 923.689 667.732C924.09 667.742 924.617 667.714 925.29 667.628C925.361 667.619 925.436 667.605 925.514 667.586C926.388 667.371 927.679 666.558 929.116 665.528C932.418 664.177 935.708 662.81 939.099 661.422C940.123 661.741 942.863 661.118 950.54 657.303C951.025 656.89 951.51 656.477 951.994 656.064C1019.16 627.776 1097.79 592.599 1179.43 548.19C1184.49 545.395 1190.34 541.998 1192.04 540.752C1192.17 540.658 1192.2 540.621 1191.89 540.864C1191.74 540.986 1191.51 541.173 1191.19 541.459C1190.8 541.804 1190.25 542.314 1189.52 543.074C1188.88 543.758 1187.71 545.01 1186.21 547.19C1185.45 548.315 1184.72 549.451 1183.76 551.336C1182.66 553.504 1181.51 556.257 1180.67 559.749C1178.74 565.471 1179.3 580.198 1184.78 588.638C1189.21 596.571 1195.88 601.188 1198.07 602.493C1204.41 606.167 1206 606.064 1207.56 606.585C1208.8 606.887 1209.2 606.929 1209.39 606.962C1209.53 606.983 1209.43 606.969 1209.16 606.948C1208.91 606.929 1208.57 606.907 1208.11 606.884C1199.66 606.537 1185.79 607.214 1173 607.88C1147.1 609.289 1119.83 611.092 1091.91 612.775C966.318 620.326 828.763 627.773 683.409 635.362C683.355 635.353 683.328 635.341 683.274 635.332C681.248 634.991 677.532 635.311 675.013 635.802C634.47 637.907 593.283 640 551.758 642.025C550.255 642.098 548.767 642.17 547.294 642.241C546.933 642.037 546.225 641.91 545.077 641.963C543.928 642.015 543.222 642.207 542.889 642.443C541.051 642.539 539.297 642.619 537.329 642.708C536.99 642.491 536.241 642.353 535.024 642.408C533.808 642.463 533.069 642.668 532.759 642.914C512.392 643.874 491.705 644.839 470.695 645.575C460.069 645.931 449.535 646.262 438.051 646.268C432.176 646.222 426.641 646.282 418.077 645.457C416.86 645.329 415.654 645.181 414.334 644.985C412.733 644.742 411.314 644.505 409.19 644.028C406.871 643.466 404.684 642.998 400.235 641.19C396.634 639.047 388.077 637.983 377.513 620.968C372.128 611.647 371.076 599.049 372.817 591.173C374.594 582.713 376.831 579.194 378.797 575.77C382.343 570.158 384.597 568.105 386.369 566.247C389.698 562.982 391.34 561.769 392.859 560.518C439.86 526.488 479.143 507.271 522.658 482.749C623.479 427.705 726.506 373.726 828.245 317.594C896.399 279.93 963.069 241.284 1027.12 198.814C1088.22 157.864 1162.74 110.05 1200.51 72.4388C1197.34 76.1913 1192.62 85.0553 1192.51 94.8427C1192.31 104.576 1195.44 110.888 1197.14 113.912C1198.99 117.056 1200.04 118.038 1200.52 118.59C1201 119.096 1200.97 119.026 1200.67 118.793C1199.32 117.64 1194.76 114.61 1190.04 111.925C1192.76 113.343 1190.87 112.237 1187.73 111.729C1184.55 111.109 1180.08 110.549 1175.39 110.15C1165.86 109.338 1155.15 109.009 1144.27 108.872C1122.46 108.629 1099.99 109.113 1077.51 109.751C957.448 113.899 837.987 123.053 725.271 133.988C647.075 141.709 572.682 151.81 499.538 163.412C490.732 164.738 482.133 166.059 472.228 167.221C467.02 167.762 462.438 168.437 453.44 168.427C451.04 168.38 448.381 168.32 444.144 167.73C439.723 166.736 434.195 167.184 421.067 158.907C414.481 154.614 405.831 145.282 402.181 134.26C398.449 123.346 399.212 114.886 400.029 109.473C402.012 98.8577 404.295 95.5883 405.762 92.3649C470.661 7.72921 519.051 -17.4394 567.443 -66.2259C568.154 -66.8932 568.579 -67.376 568.45 -67.2411C568.305 -66.9946 567.569 -66.5372 565.527 -62.5953C564.537 -60.4902 563.136 -57.6177 562.17 -51.7903C561.232 -46.2674 561.428 -37.1589 565.18 -28.6587C573.649 -11.0612 583.885 -8.61003 586.707 -7.05411C590.211 -5.73193 590.881 -5.83104 591.017 -5.7625C591.089 -5.75078 590.396 -5.82837 589.453 -5.86094C587.514 -5.93946 584.541 -5.88693 581.366 -5.69378C556.079 -4.06218 527.478 1.83414 500.677 8.20263C449.017 20.5708 400.765 37.1968 356.224 52.7493C256.769 88.0676 178.196 118.235 127.354 137.603C102.459 147.14 84.2952 154.233 73.5299 158.574ZM314.444 -28.2837C318.875 -29.8447 318.515 -30.8713 314.082 -29.3099C309.637 -27.7412 310 -26.7155 314.444 -28.2837Z" fill="white"/>
</svg>
